<svg xmlns="http://www.w3.org/2000/svg" height="1200" width="1600" version="1.1" xmlns:xlink="http://www.w3.org/1999/xlink" xmlns:svgjs="http://svgjs.com/svgjs"><rect fill="#f3ebe9" width="1600" height="1200"></rect><g><path d="M570.1 672.6V763.5C570.1 776.5 559.6 787 546.6 787H531.3C518.3 787 507.8 797.5 507.8 810.5V846.1C507.8 859.1 518.3 869.6 531.3 869.6H900.7C913.7 869.6 924.2 880.1 924.2 893.1V922.8C924.2 935.8 934.7 946.3 947.7 946.3H966.5C979.5 946.3 990 935.8 990 922.8V857.5C990 844.5 1000.5 834 1013.5 834H1316.5C1329.5 834 1340 823.5 1340 810.5V703.9" stroke="#231f20" stroke-width="4" stroke-linecap="round" stroke-linejoin="round" opacity="1" fill="none"></path></g><g><path d="M357.7 243H355.29L336.26 258.03 314.06 243H292.75C284.61 243 278 249.61 278 257.75V340.63C278 348.77 284.61 355.39 292.75 355.39H303.71L336.33 334.77 365.57 355.39H375.63C383.77 355.39 390.39 348.77 390.39 340.63V275.68C390.39 272.58 389.15 269.61 386.94 267.4L365.98 246.44C363.77 244.24 360.81 243 357.7 243Z" fill="#ffa0dc" opacity="1" stroke-width="4" stroke="none"></path><path d="M307.85 305.88H361.5C363.77 305.88 365.57 307.74 365.57 309.95V355.39H303.71V310.02C303.78 307.74 305.58 305.88 307.85 305.88Z" fill="#3c2c5b" opacity="1" stroke-width="4" stroke="none"></path><path d="M314.06 243H355.29V271.34C355.29 273.33 353.71 274.92 351.71 274.92H317.64C315.64 274.92 314.06 273.33 314.06 271.34V243Z" fill="#3c2c5b" opacity="1" stroke-width="4" stroke="none"></path></g><g><path d="M707.21 418.08L645.1 398.65V367.99H624.06L515.35 464.97 624.06 574.38H645.1V543.72L707.21 524.29V418.08Z" fill="#3c2c5b" opacity="1" stroke-width="4" stroke="none"></path><path d="M652.21 400.85L645.1 398.65V543.72L669.44 536.11 652.21 400.85Z" fill="#000000" opacity="0.3" stroke-width="4" stroke="none"></path><path d="M581.98 553.34H474.77V626.48H581.98V553.34Z" fill="#f3ebe9" opacity="1" stroke-width="4" stroke="none"></path><path d="M552.92 553.34H445.72V626.48H552.92V553.34Z" fill="#3c2c5b" opacity="1" stroke-width="4" stroke="none"></path><path d="M604.02 612.45H709.22V681.58H604.02L538.69 650.52 604.02 612.45Z" fill="#3c2c5b" opacity="1" stroke-width="4" stroke="none"></path><path d="M604.02 612.45H354.55V681.58H604.02V612.45Z" fill="#ff4f32" opacity="1" stroke-width="4" stroke="none"></path><path d="M624.06 367.99H374.58V574.38H624.06V367.99Z" fill="#ff4f32" opacity="1" stroke-width="4" stroke="none"></path><path d="M594 398.05H404.64V544.32H594V398.05Z" fill="#f3ebe9" opacity="1" stroke-width="4" stroke="none"></path><path d="M588.99 627.48H502.83V645.51H588.99V627.48Z" fill="#000000" opacity="1" stroke-width="4" stroke="none"></path><path d="M645.1 398.65V543.72" stroke="#000000" stroke-width="4" stroke-linecap="round" stroke-linejoin="round" opacity="1" fill="none"></path><path d="M431.69 427.1H499.82" stroke="#ff4f32" stroke-width="4" stroke-linecap="round" stroke-linejoin="round" opacity="1" fill="none"></path><path d="M431.69 447.14H463.75" stroke="#ff4f32" stroke-width="4" stroke-linecap="round" stroke-linejoin="round" opacity="1" fill="none"></path><path d="M431.69 477.2H481.79" stroke="#ff4f32" stroke-width="4" stroke-linecap="round" stroke-linejoin="round" opacity="1" fill="none"></path></g><g><path d="M1415.57 248.64L1457.78 670.72C1461.03 703.28 1431.09 729.73 1390.7 729.84L781.22 731.43C740.98 731.53 705.76 705.25 702.51 672.69L660.3 250.61C657.04 218.05 686.99 191.6 727.23 191.5L1336.7 189.91C1376.94 189.8 1412.31 216.08 1415.57 248.64Z" fill="#ffffff" opacity="1" stroke-width="4" stroke="none"></path></g><g><path d="M1259.14 527.1L1110.7 616.6C1090.84 628.64 1065.19 628.64 1042.66 616.6L874.46 527.1C860.82 519.78 854.58 503.55 860.23 490.73 862.12 486.54 865.15 483.14 869.31 480.52L1017.75 391.02C1037.62 378.99 1063.26 378.99 1085.79 391.02L1254.03 480.78C1267.66 488.11 1273.9 504.34 1268.25 517.16 1266.36 521.35 1263.07 524.75 1259.14 527.1Z" fill="#3c2c5b" opacity="1" stroke-width="4" stroke="none"></path><path d="M1249.6 440.75L1101.17 530.24C1081.3 542.28 1055.65 542.28 1033.13 530.24L864.92 440.75C851.29 433.42 845.04 417.19 850.69 404.37 852.59 400.18 855.61 396.78 859.77 394.16L1008.21 304.67C1028.08 292.63 1053.72 292.63 1076.25 304.67L1244.49 394.43C1258.12 401.75 1264.36 417.98 1258.71 430.8 1256.82 434.99 1253.53 438.39 1249.6 440.75Z" fill="#ffa0dc" opacity="1" stroke-width="4" stroke="none"></path></g><g><path d="M1281.5 1019.86L1267.14 983.37C1267.14 983.27 1267.14 983.27 1267.14 983.16 1271.75 972.78 1271.75 957.26 1266.82 930.52 1266.82 930.42 1266.82 930.42 1266.82 930.31 1268.39 927.69 1304.36 873.06 1307.61 867.92 1307.72 867.71 1307.93 867.71 1308.14 867.92 1311.6 872.96 1349.34 928.11 1350.81 930.31 1350.81 930.31 1350.81 930.42 1350.81 930.52 1350.71 964.39 1346.41 997 1342.74 1019.02 1342.74 1019.13 1342.63 1019.55 1342.53 1019.55 1338.65 1019.97 1281.61 1019.65 1281.5 1019.86Z" fill="#e59763" opacity="1" stroke-width="4" stroke="none"></path><path d="M1132.6 1021.76C1131.66 1007.18 1126.52 985.48 1126.31 983.7 1126.31 983.59 1126.31 983.59 1126.31 983.49 1132.71 971.95 1133.13 954.86 1131.66 930.64 1131.66 930.53 1131.76 930.32 1131.87 930.32 1135.33 929.38 1177.17 922.04 1178.95 921.72H1179.06C1180.52 922.14 1212.92 930.32 1212.92 930.32 1212.09 966.29 1205.9 1001.52 1202.12 1019.35 1202.12 1019.45 1202.02 1019.56 1201.91 1019.56 1196.78 1020.29 1135.75 1021.44 1135.64 1021.76L1132.92 1021.97C1132.71 1021.97 1132.6 1021.86 1132.6 1021.76Z" fill="#e59763" opacity="1" stroke-width="4" stroke="none"></path><path d="M1033.83 479.53C1033.83 479.42 1033.72 479.32 1033.62 479.32 1031.73 478.79 1022.5 474.71 1011.91 447.23V447.13C997.76 429.41 987.79 416.51 990 413.36 990 413.36 990 413.26 990.1 413.26 994.51 409.17 1003 416.4 1009.61 423.33 1009.82 423.53 1010.02 423.33 1009.92 423.12 1005.1 413.99 995.45 404.03 998.6 396.06 999.12 394.7 1000.06 393.65 1001.64 393.02 1001.74 393.02 1001.85 392.81 1001.85 392.71 1001.01 386.42 1005.94 383.58 1011.28 385.79 1011.39 385.79 1011.49 385.79 1011.6 385.79 1025.33 376.87 1043.05 411.58 1053.96 420.7 1054.17 420.81 1054.38 420.7 1054.48 420.49 1056.58 407.18 1058.36 395.64 1063.92 396.06 1066.12 396.06 1066.96 400.68 1068.12 406.97 1069.06 412.42 1070.32 419.13 1072.73 424.37 1077.45 434.44 1079.86 445.55 1079.76 456.46V456.57C1084.16 465.06 1088.67 472.71 1092.44 480.68 1092.55 480.79 1092.44 481 1092.34 481.1 1090.35 482.15 1076.82 488.86 1064.03 494.94 1053.02 500.08 1042.32 503.75 1040.43 504.38 1040.22 504.49 1040.12 504.38 1040.01 504.17 1039.18 501.86 1035.3 486.97 1033.83 479.53Z" fill="#e59763" opacity="1" stroke-width="4" stroke="none"></path><path d="M1054.17 420.91L1052.91 428.99C1052.91 428.99 1046.31 442.2 1049.87 456.88" stroke="#030202" stroke-width="4" stroke-linecap="round" stroke-linejoin="round" opacity="1" fill="none"></path><path d="M1011.39 385.68C1023.97 399 1035.61 416.4 1035.61 416.4" stroke="#030202" stroke-width="4" stroke-linecap="round" stroke-linejoin="round" opacity="1" fill="none"></path><path d="M1001.95 392.92C1007.4 398.37 1025.44 423.43 1025.44 423.43" stroke="#030202" stroke-width="4" stroke-linecap="round" stroke-linejoin="round" opacity="1" fill="none"></path><path d="M1009.82 423.33L1016 431.29" stroke="#030202" stroke-width="4" stroke-linecap="round" stroke-linejoin="round" opacity="1" fill="none"></path><path d="M1207.79 435.39L1207.89 426.59C1207.89 426.38 1207.68 426.27 1207.47 426.27 1196.67 429.31 1182.62 425.64 1177.48 416.52 1169.09 402.26 1178.85 388 1178.95 372.27 1179.79 363.04 1180.94 351.93 1184.61 344.06 1185.24 342.6 1185.98 341.34 1186.82 340.18 1186.92 340.08 1186.92 340.08 1187.02 340.08 1198.66 340.18 1208.21 338.3 1227.19 338.3 1228.65 338.3 1233.37 345.74 1234.84 345.85 1256.65 347 1250.25 345.85 1272.9 361.57 1273.01 361.68 1273.01 361.68 1273.01 361.78 1272.69 372.48 1270.81 400.37 1269.44 422.08 1269.13 426.69 1268.92 431.2 1268.71 434.97V435.08C1268.71 436.76 1207.58 434.87 1207.79 435.39Z" fill="#e59763" opacity="1" stroke-width="4" stroke="none"></path><path d="M1242.91 408.23C1242.81 408.12 1242.91 407.91 1243.02 407.81 1245.22 406.44 1263.78 394.59 1260.11 383.79 1257.17 373.31 1240.71 376.98 1235.47 379.08 1235.26 379.18 1235.05 379.08 1235.05 378.87 1233.69 371.84 1234.84 366.6 1237.15 361.14 1237.25 360.93 1237.04 360.72 1236.83 360.72 1222.68 362.93 1211.14 356.11 1218.8 343.53 1218.9 343.32 1218.69 343 1218.48 343.11 1207.68 346.88 1190.07 349.4 1184.82 344.05 1184.72 343.95 1184.72 343.84 1184.72 343.74 1189.02 317.31 1270.91 303.37 1273.22 361.25 1273.01 377.08 1271.85 400.99 1269.55 421.54 1269.55 421.65 1269.44 421.86 1269.23 421.86 1250.04 421.96 1243.75 410.11 1242.91 408.23Z" fill="#010005" opacity="1" stroke-width="4" stroke="none"></path><path d="M1207.89 426.17C1215.34 423.96 1222.47 421.13 1227.29 417.99" stroke="#030202" stroke-width="4" stroke-linecap="round" stroke-linejoin="round" opacity="1" fill="none"></path><path d="M1237.67 394.49L1245.54 391.34" stroke="#030202" stroke-width="4" stroke-linecap="round" stroke-linejoin="round" opacity="1" fill="none"></path><path d="M1197.41 382.01L1196.78 384.21C1196.36 385.47 1196.78 386.83 1197.72 387.67L1197.93 387.88" stroke="#030202" stroke-width="4" stroke-linecap="round" stroke-linejoin="round" opacity="1" fill="none"></path><path d="M1195.2 397.54C1196.57 398.59 1201.29 398.69 1203.91 395.44" stroke="#030202" stroke-width="4" stroke-linecap="round" stroke-linejoin="round" opacity="1" fill="none"></path><path d="M1210.72 380.44C1212.17 380.44 1213.34 379.26 1213.34 377.82 1213.34 376.37 1212.17 375.2 1210.72 375.2 1209.28 375.2 1208.1 376.37 1208.1 377.82 1208.1 379.26 1209.28 380.44 1210.72 380.44Z" fill="#010005" opacity="1" stroke-width="4" stroke="none"></path><path d="M1188.81 377.19C1190.25 377.19 1191.43 376.01 1191.43 374.57 1191.43 373.12 1190.25 371.94 1188.81 371.94 1187.36 371.94 1186.19 373.12 1186.19 374.57 1186.19 376.01 1187.36 377.19 1188.81 377.19Z" fill="#010005" opacity="1" stroke-width="4" stroke="none"></path><path d="M1087.83 1019.65C1090.56 1013.88 1097.06 1008.85 1105.45 1003.19 1109.74 999.83 1114.57 996.06 1120.13 991.34 1122.64 989.24 1124.53 986.73 1126.1 983.89 1126.21 983.79 1126.42 983.69 1126.52 983.79 1139.73 991.23 1148.75 1000.57 1149.38 1021.96 1149.38 1022.69 1093.7 1020.28 1088.04 1020.18 1087.83 1020.07 1087.72 1019.86 1087.83 1019.65Z" fill="#61ccff" opacity="1" stroke-width="4" stroke="none"></path><path d="M1350.81 920.05C1350.39 893.1 1343.26 860.7 1336.24 837.52 1332.15 823.05 1328.69 810.58 1327.32 797.78 1321.03 723.33 1349.87 658.01 1300.69 583.14 1300.59 583.03 1300.59 583.03 1300.48 583.03H1218.9C1218.9 583.03 1218.9 583.03 1218.9 583.14 1205.37 583.14 1194.57 583.24 1193.21 583.24 1193.11 583.24 1193 583.35 1193 583.35 1170.98 621.83 1113.62 756.26 1129.04 888.07 1129.88 902.85 1131.03 916.06 1131.87 930.11 1131.87 930.32 1131.97 930.43 1132.18 930.43 1137.22 930.32 1207.89 930.64 1212.92 930.32 1213.13 930.32 1213.24 930.22 1213.24 930.01 1213.24 924.14 1213.45 920.47 1213.24 914.7 1212.61 894.15 1211.25 877.68 1208.94 861.33 1201.18 820.22 1213.03 791.81 1234.45 747.12 1234.84 746.09 1234.84 746.19 1235.02 747.5 1240.61 796.31 1247.84 845.7 1257.91 887.33 1260.95 901.28 1264.62 917.74 1267.03 930.11 1267.03 930.22 1267.14 930.32 1267.35 930.32H1350.92C1351.13 930.32 1351.23 930.22 1351.23 930.01 1350.92 926.65 1350.92 923.19 1350.81 920.05Z" fill="#61ccff" opacity="1" stroke-width="4" stroke="none"></path><path d="M1214.08 735.28C1213.66 760.44 1215.13 782.36 1215.55 787.81 1215.55 788.13 1215.97 788.23 1216.07 787.92 1221.42 773.86 1228.31 759.82 1234.49 746.86 1234.42 745.97 1234.42 745.87 1234.35 743.96 1231.27 718.19 1228.55 690.71 1226.03 663.76 1226.03 663.45 1225.61 663.34 1225.51 663.55 1213.13 679.81 1214.5 711.89 1214.08 735.28Z" fill="#003852" opacity="0.2" stroke-width="4" stroke="none"></path><path d="M1280.14 582.71C1302.68 645.1 1293.46 740.62 1300.69 803.85 1307.93 867.5 1320.09 876.94 1324.07 929.58" stroke="#003852" stroke-width="4" stroke-linecap="round" stroke-linejoin="round" opacity="1" fill="none"></path><path d="M1204.54 583.44L1241.45 583.02C1242.28 583.13 1297.34 582.81 1300.48 583.13 1300.59 583.13 1300.69 583.13 1300.69 583.23 1315.16 602.95 1323.03 631.47 1324.07 635.45 1324.18 635.66 1323.97 635.87 1323.76 635.87 1317.05 634.51 1237.36 617.73 1204.33 584.07 1204.12 583.76 1204.22 583.44 1204.54 583.44Z" fill="#003852" opacity="0.2" stroke-width="4" stroke="none"></path><path d="M1229.39 1019.65C1229.18 1019.65 1229.07 1019.34 1229.18 1019.23 1235.89 1009.38 1250.25 1001.09 1260.95 991.23 1263.57 989.03 1265.46 986.52 1266.93 983.48 1267.03 983.37 1267.14 983.27 1267.35 983.37 1281.19 990.61 1290.41 1003.71 1291.15 1021.75 1291.15 1022.38 1235.47 1020.07 1229.39 1019.65Z" fill="#61ccff" opacity="1" stroke-width="4" stroke="none"></path><path d="M1225.93 662.4C1228.23 686.73 1230.96 715.35 1234.87 746.6" stroke="#003852" stroke-width="4" stroke-linecap="round" stroke-linejoin="round" opacity="1" fill="none"></path><path d="M1321.77 475.12C1301.95 447.23 1271.75 443.98 1268.5 443.67 1268.29 443.67 1268.18 443.56 1268.18 443.35 1268.29 441.57 1268.6 436.54 1268.71 435.28 1268.71 435.07 1268.6 434.96 1268.39 434.96H1208.1C1207.89 434.96 1207.79 435.07 1207.79 435.28L1207.68 444.93C1207.68 445.14 1207.58 445.24 1207.37 445.24 1207.05 445.24 1206.53 445.14 1205.79 445.14 1163.85 445.24 1139.1 485.61 1111.95 519.17 1111.84 519.37 1111.53 519.27 1111.42 519.17 1109.74 515.7 1102.3 500.61 1092.44 481.21 1092.34 481.1 1092.23 481 1092.13 481.1 1088.35 482.36 1043.37 502.7 1040.12 504.49 1040.01 504.59 1039.91 504.69 1040.01 504.8 1064.24 619.41 1126.31 608.19 1180 535.84 1180.1 535.63 1180.42 535.73 1180.52 535.94 1181.89 541.29 1191.95 580.19 1192.79 583.44 1192.79 583.55 1192.9 583.65 1193.11 583.65H1260.01C1260.22 583.65 1260.32 583.76 1260.32 583.97L1259.06 603.16C1259.06 603.26 1259.17 603.47 1259.27 603.47 1276.47 607.25 1292.09 609.34 1305.41 609.24 1409.53 610.92 1333.51 488.97 1321.77 475.12Z" fill="#ffc930" opacity="1" stroke-width="4" stroke="none"></path><path d="M1174.86 511.73C1175.07 511.63 1175.18 511.73 1175.28 511.94 1175.91 514.88 1180.73 535.32 1180.31 535.32 1172.03 546.54 1163.01 556.09 1160.08 559.13 1159.87 559.34 1159.45 559.13 1159.55 558.81 1169.62 532.49 1168.67 514.14 1174.86 511.73Z" fill="#505050" opacity="0.2" stroke-width="4" stroke="none"></path><path d="M1183.88 631.37C1178.22 630.22 1182.94 620.26 1188.28 612.08 1188.49 611.77 1188.18 611.45 1187.86 611.66 1180.63 616.59 1171.61 623.61 1164.38 623.61 1161.54 623.72 1159.55 622.25 1157.56 620.47 1157.56 620.47 1157.45 620.36 1157.35 620.36 1152 620.26 1150.85 616.27 1152 611.45 1152 611.35 1152 611.35 1152 611.24 1148.23 601.91 1160.6 589.64 1171.09 579.99 1180.21 572.13 1189.86 565.73 1196.78 563.22 1214.18 556.71 1243.33 554.93 1262.31 554.83 1262.52 554.83 1262.63 554.93 1262.63 555.14 1262.84 559.97 1260.43 599.6 1259.17 602.96 1259.17 603.06 1258.96 603.17 1258.85 603.17 1253.4 602.01 1246.48 600.23 1240.29 598.55 1240.19 598.55 1240.08 598.55 1240.08 598.55 1238.51 599.71 1226.14 604.43 1208.73 608.2 1208.63 608.2 1208.63 608.3 1208.52 608.3 1198.03 622.25 1187.02 631.27 1183.88 631.37Z" fill="#e59763" opacity="1" stroke-width="4" stroke="none"></path><path d="M1208.1 426.06C1209.57 425.64 1219.32 422.5 1227.4 417.88 1227.71 417.67 1228.02 418.09 1227.81 418.3L1208.31 441.16C1208.1 441.37 1207.79 441.27 1207.79 440.95L1208 426.27C1207.89 426.27 1208 426.17 1208.1 426.06Z" fill="#030202" opacity="0.2" stroke-width="4" stroke="none"></path><path d="M1228.86 1019.76C1228.97 1019.65 1228.97 1019.65 1229.07 1019.65L1342.53 1019.13C1342.74 1019.13 1342.84 1019.34 1342.84 1019.44 1341.48 1026.89 1340.54 1031.61 1340.01 1034.23 1340.01 1034.33 1339.91 1034.44 1339.7 1034.44 1334.14 1034.44 1231.48 1034.65 1225.3 1034.65 1225.09 1034.65 1224.98 1034.54 1224.98 1034.33 1224.98 1032.76 1225.09 1023.85 1228.86 1019.76Z" fill="#143b4e" opacity="1" stroke-width="4" stroke="none"></path><path d="M1087.72 1020.07L1201.7 1019.55C1201.91 1019.55 1202.02 1019.76 1202.02 1019.86 1200.55 1027.52 1199.19 1032.86 1198.87 1034.12 1198.87 1034.23 1198.77 1034.33 1198.56 1034.33 1192.58 1034.33 1090.77 1034.65 1084.16 1034.65 1083.95 1034.65 1083.84 1034.54 1083.84 1034.33 1083.74 1032.76 1083.63 1024.58 1087.41 1020.07 1087.62 1020.07 1087.72 1020.07 1087.72 1020.07Z" fill="#143b4e" opacity="1" stroke-width="4" stroke="none"></path><path d="M1273.01 554.92L1291.99 555.13C1292.2 555.13 1292.3 554.92 1292.3 554.71L1277.41 516.86C1277.41 516.75 1277.2 516.65 1277.1 516.65 1265.98 516.96 1282.13 540.98 1272.69 554.5 1272.69 554.61 1272.8 554.92 1273.01 554.92Z" fill="#505050" opacity="0.2" stroke-width="4" stroke="none"></path><path d="M1111.95 519.18L1119.39 509.74" stroke="#505050" stroke-width="4" stroke-linecap="round" stroke-linejoin="round" opacity="1" fill="none"></path><path d="M1180.42 535.63L1175.28 511.93" stroke="#505050" stroke-width="4" stroke-linecap="round" stroke-linejoin="round" opacity="1" fill="none"></path><path d="M1268.71 443.68C1277.83 444.94 1275.94 445.15 1282.34 446.61" stroke="#505050" stroke-width="4" stroke-linecap="round" stroke-linejoin="round" opacity="1" fill="none"></path><path d="M1277.52 516.86L1292.51 555.13" stroke="#505050" stroke-width="4" stroke-linecap="round" stroke-linejoin="round" opacity="1" fill="none"></path><path d="M1262.52 554.92C1272.69 554.92 1290.2 555.13 1302.68 555.87" stroke="#505050" stroke-width="4" stroke-linecap="round" stroke-linejoin="round" opacity="1" fill="none"></path><path d="M1152 611.35C1158.29 604.32 1172.66 591.11 1182.83 584.08" stroke="#030202" stroke-width="4" stroke-linecap="round" stroke-linejoin="round" opacity="1" fill="none"></path><path d="M1157.77 620.15C1162.49 615.44 1178.11 602.12 1190.69 593.52" stroke="#030202" stroke-width="4" stroke-linecap="round" stroke-linejoin="round" opacity="1" fill="none"></path><path d="M1189.12 610.81L1198.56 602.84" stroke="#030202" stroke-width="4" stroke-linecap="round" stroke-linejoin="round" opacity="1" fill="none"></path></g><g><path d="M709.1 761H894.4V1032H709.1L684.9 906.6 709.1 761Z" fill="#ffc930" opacity="1" stroke-width="4" stroke="none"></path><path d="M709.1 761H605V1032H709.1V761Z" fill="#ff4f32" opacity="1" stroke-width="4" stroke="none"></path><path d="M688.5 790.3H625.6V817H688.5V790.3Z" fill="#3c2c5b" opacity="1" stroke-width="4" stroke="none"></path><path d="M657.6 975.7C660.91 975.7 663.6 973.01 663.6 969.7 663.6 966.39 660.91 963.7 657.6 963.7 654.29 963.7 651.6 966.39 651.6 969.7 651.6 973.01 654.29 975.7 657.6 975.7Z" fill="#1f0e0c" opacity="1" stroke-width="4" stroke="none"></path><path d="M657.6 999.5C660.91 999.5 663.6 996.81 663.6 993.5 663.6 990.19 660.91 987.5 657.6 987.5 654.29 987.5 651.6 990.19 651.6 993.5 651.6 996.81 654.29 999.5 657.6 999.5Z" fill="#1f0e0c" opacity="1" stroke-width="4" stroke="none"></path><path d="M672.8 834.9V849.6" stroke="#000000" stroke-width="4" stroke-linecap="round" stroke-linejoin="round" opacity="1" fill="none"></path><path d="M657 834.9V849.6" stroke="#000000" stroke-width="4" stroke-linecap="round" stroke-linejoin="round" opacity="1" fill="none"></path><path d="M641.3 834.9V849.6" stroke="#000000" stroke-width="4" stroke-linecap="round" stroke-linejoin="round" opacity="1" fill="none"></path><path d="M796 953H863.5" stroke="#000000" stroke-width="4" stroke-linecap="round" stroke-linejoin="round" opacity="1" fill="none"></path><path d="M796 975H863.5" stroke="#000000" stroke-width="4" stroke-linecap="round" stroke-linejoin="round" opacity="1" fill="none"></path><path d="M796 997H863.5" stroke="#000000" stroke-width="4" stroke-linecap="round" stroke-linejoin="round" opacity="1" fill="none"></path><path d="M657.6 946.3C666.27 946.3 673.3 939.27 673.3 930.6 673.3 921.93 666.27 914.9 657.6 914.9 648.93 914.9 641.9 921.93 641.9 930.6 641.9 939.27 648.93 946.3 657.6 946.3Z" fill="#3c2c5b" opacity="1" stroke-width="4" stroke="none"></path></g><g><path d="M1409.18 848.68L1392.58 753.04 1488.22 769.64 1466.03 791.82 1506.14 831.93 1471.47 866.6 1431.36 826.49 1409.18 848.68Z" fill="#ff4f32" opacity="1" stroke-width="4" stroke="none"></path></g><g><path d="M446.64 1028.58C444.01 1023.58 441.47 1018.83 439.09 1013.92 435.7 1006.71 433.24 1001.2 431.12 996.2L431.04 996.03H431.12C434.43 994.84 443.59 991.96 456.39 991.96 460.88 991.96 465.29 992.3 469.53 993.06H469.62L474.87 1015.27 446.89 1029.18 446.64 1028.58Z" fill="#525252" opacity="1" stroke-width="4" stroke="none"></path><path d="M239.93 556.41C238.4 548.19 236.37 537.59 234.84 529.03 233.57 522.24 232.47 506.81 231.96 503.84 231.96 503.84 284.19 456.11 290.12 458.48 298.18 461.62 303.69 466.2 307.67 472.47 311.4 478.41 313.78 485.87 316.83 494.94L317.59 497.23C318.53 497.32 325.14 498.25 325.82 501.13 326.58 504.18 322.6 509.44 322 510.12 327.26 526.65 327.17 535.64 321.58 543.35 318.19 548.1 311.15 550.99 302.84 550.99 299.28 550.99 295.97 550.48 293.35 549.46L295.55 563.02 239.93 556.41Z" fill="#cf5934" opacity="1" stroke-width="4" stroke="none"></path><path d="M290.12 562.94L281.39 543.78C288.09 547.51 293.35 549.46 293.35 549.46L294.87 558.7 290.12 562.94Z" fill="#030202" opacity="0.2" stroke-width="4" stroke="none"></path><path d="M316.66 520.46C314.46 521.23 309.96 520.72 308.52 517.83" stroke="#030202" stroke-width="4" stroke-linecap="round" stroke-linejoin="round" opacity="1" fill="none"></path><path d="M307.42 502.32C308.73 502.32 309.79 501.26 309.79 499.94 309.79 498.63 308.73 497.57 307.42 497.57 306.11 497.57 305.05 498.63 305.05 499.94 305.05 501.26 306.11 502.32 307.42 502.32Z" fill="#010005" opacity="1" stroke-width="4" stroke="none"></path><path d="M275.71 520.46L268.25 515.97" stroke="#030202" stroke-width="4" stroke-linecap="round" stroke-linejoin="round" opacity="1" fill="none"></path><path d="M210.34 487.23C226.21 487.23 239.08 474.36 239.08 458.48 239.08 442.61 226.21 429.74 210.34 429.74 194.47 429.74 181.6 442.61 181.6 458.48 181.6 474.36 194.47 487.23 210.34 487.23Z" fill="#010005" opacity="1" stroke-width="4" stroke="none"></path><path d="M303.86 970.17L301.48 964.91V964.83C302.5 955.5 304.03 945.92 305.89 936.34L310.13 923.62 394.75 924.98 392.63 936.51C390.26 944.56 388.56 950.58 388.14 955.41L365.92 999.59 303.86 970.17Z" fill="#cf5934" opacity="1" stroke-width="4" stroke="none"></path><path d="M298.77 1029.09V1028.92C298.6 1023.16 298.6 1017.48 298.6 1011.97 298.6 1005.27 298.86 998.74 299.11 992.47V992.3H299.28C311.83 994.16 323.53 999.5 333.11 1007.9L333.19 1007.98 330.57 1029.09H298.77Z" fill="#525252" opacity="1" stroke-width="4" stroke="none"></path><path d="M341.67 1017.56C330.23 1003.49 315.98 995.18 299.28 992.72H299.11V992.13C299.28 989.67 299.36 987.21 299.53 984.92 299.96 978.56 301.23 966.69 301.4 964.91 301.4 964.83 301.48 964.74 301.65 964.74 333.7 966.27 354.82 983.56 359.22 987.46 359.39 987.63 359.65 987.46 359.56 987.29L356.6 968.73C356.09 965.67 356.77 962.54 358.63 960.08 360.41 957.53 363.12 955.84 366.18 955.33 366.77 955.24 367.45 955.16 368.13 955.16H388.22C388.39 955.16 388.48 955.24 388.48 955.41 388.39 956.6 387.88 961.6 387.88 962.96 387.97 983.39 397.04 991.7 405.86 999.67 410.1 1003.49 414.08 1007.13 416.96 1011.97 417.98 1013.66 418.74 1015.44 419.42 1017.31L419.51 1017.56H341.67Z" fill="#cecece" opacity="1" stroke-width="4" stroke="none"></path><path d="M305.81 936.51V936.34C312.59 900.64 324.29 866.05 340.66 833.58L345.91 823.32C309.12 823.23 277.57 812.3 263.42 794.66 256.12 785.5 253.67 775.16 256.21 763.88 262.14 738.19 271.72 721.66 271.81 721.57L272.06 721.07 272.32 724.88C276.9 725.39 384.41 738.45 417.64 777.87 439.94 804.33 419.59 860.62 403.31 905.81 399.33 916.92 395.51 927.43 392.71 936.51H305.81Z" fill="#ffc930" opacity="1" stroke-width="4" stroke="none"></path><path d="M395.6 926.59C395.43 926.16 382.79 880.63 328.7 860.28L328.53 860.2 328.62 860.03C332.43 850.79 336.5 841.89 340.74 833.49 342.44 830.19 343.45 828.07 343.96 827.13 343.88 827.05 343.88 827.05 344.73 825.35V825.27L426.97 800.76V800.93C430.61 830.27 415.52 872.15 403.4 905.73 400.68 913.11 398.23 920.06 396.02 926.59L395.85 927.1 395.6 926.59Z" fill="#211800" opacity="0.2" stroke-width="4" stroke="none"></path><path d="M392.71 984.5L379.15 990.09" stroke="#525252" stroke-width="4" stroke-linecap="round" stroke-linejoin="round" opacity="1" fill="none"></path><path d="M400.43 994.92L388.98 1003.57" stroke="#525252" stroke-width="4" stroke-linecap="round" stroke-linejoin="round" opacity="1" fill="none"></path><path d="M391.95 936.59L305.98 936.42" stroke="#211800" stroke-width="4" stroke-linecap="round" stroke-linejoin="round" opacity="1" fill="none"></path><path d="M421.46 971.35C417.9 961.52 414.67 951.09 412.13 941.85L411.96 934.64 487.08 897.59 490.73 904.54C492.93 916.07 494.2 922.69 495.22 924.98L490.47 975.42 425.78 972.88 421.46 971.35Z" fill="#cf5934" opacity="1" stroke-width="4" stroke="none"></path><path d="M483.94 997.21C475.38 993.99 466.14 992.3 456.47 992.3 443.76 992.3 434.68 995.18 431.38 996.37L431.21 996.45 431.12 996.28C430.02 993.99 423.24 976.95 421.2 971.52L421.12 971.18 421.46 971.1C433.92 965.42 447.32 962.54 461.22 962.54 474.11 962.54 486.11 966.08 485.55 965.76L475.63 951.43C471.4 945.32 472.92 936.93 479.03 932.69 479.62 932.27 495.31 924.72 495.31 924.72 495.31 924.72 497.17 928.88 497.76 929.98 507.01 948.21 518.79 951.6 530.24 954.82 535.75 956.35 540.92 957.87 545.67 960.93 547.19 961.94 548.64 963.13 549.91 964.32L549.82 964.66 483.94 997.21Z" fill="#cecece" opacity="1" stroke-width="4" stroke="none"></path><path d="M412.38 942.7C405.94 918.45 401.7 899.03 399.58 881.06 397.63 864.69 397.29 850.53 397.38 832.98L274.1 833.32C257.74 833.32 239.59 830.44 227.38 818.57 218.65 810.09 214.75 798.31 213.22 786.52 211.95 776.77 211.95 766.77 214.41 757.35 217.12 747.1 217.21 738.53 221.45 730.65L229.16 718.69H317.51L321.32 721.49C322.68 721.74 346.85 726.15 374.99 733.78 423.07 746.84 441.97 758.37 449.35 765.75 469.19 786.18 473.94 813.06 480.55 850.19 481.65 856.3 482.76 862.66 484.03 869.27L484.88 873.85C487 885.13 488.95 895.89 490.73 904.88L412.38 942.7Z" fill="#ffc930" opacity="1" stroke-width="4" stroke="none"></path><path d="M403.4 904.8C397.97 876.56 397.46 857.32 397.55 833.58" stroke="#211800" stroke-width="4" stroke-linecap="round" stroke-linejoin="round" opacity="1" fill="none"></path><path d="M512.52 947.7L503.28 958.98" stroke="#525252" stroke-width="4" stroke-linecap="round" stroke-linejoin="round" opacity="1" fill="none"></path><path d="M523.28 953.29L517.26 966.27" stroke="#525252" stroke-width="4" stroke-linecap="round" stroke-linejoin="round" opacity="1" fill="none"></path><path d="M490.3 904.8L413.74 942.19" stroke="#211800" stroke-width="4" stroke-linecap="round" stroke-linejoin="round" opacity="1" fill="none"></path><path d="M403.23 595.07L403.4 591.77C416.71 577.69 431.72 562.09 442.65 554.46 459.19 542.93 488.69 531.74 498.53 531.74 501.66 531.74 503.19 532.67 503.28 534.54 503.36 539.71 496.07 544.2 485.89 550.39 484.88 550.99 483.77 551.66 482.67 552.34 483.94 552.6 485.22 553.78 485.98 555.39 487.17 558.02 486.74 561.07 484.71 563.53 486.83 564.21 488.27 565.48 488.95 567.35 489.71 569.64 489.2 572.35 487.59 574.73 489.12 576.08 489.96 577.95 490.05 580.15 490.13 583.46 488.44 586.68 486.66 588.29 483.94 591 481.32 593.21 476.82 593.21 475.72 593.21 474.53 593.04 473.18 592.78 467.92 599.4 461.31 603.89 454.52 605.33 453.68 606.69 452.4 609.49 450.54 613.39 449.1 616.36 447.4 620.09 445.37 624.16L443.67 625.34 403.23 595.07Z" fill="#cf5934" opacity="1" stroke-width="4" stroke="none"></path><path d="M215.51 752.01C169.39 735.48 168.37 701.99 172.69 674.69 175.07 659.34 181 639.08 188.89 619.15 196.18 600.75 203.98 585.66 209.24 579.9 221.02 566.92 239.42 563.7 241.37 563.45 241.2 562.6 241.03 561.75 240.86 560.82 240.61 559.38 240.27 557.77 239.93 556.07V555.9H294.53L295.8 563.36H297.92C320.14 563.36 339.81 574.22 358.12 596.52L378.56 619.83C379.83 618.31 390.51 605.5 403.4 591.6L403.48 591.51 445.37 624.16C426.88 660.44 408.4 681.56 390.51 686.64 387.46 687.49 384.24 687.91 380.93 687.91 356.17 687.91 331.07 664 328.36 661.38L321.24 721.4H229.25C220.94 733.95 215.77 751.59 215.77 751.84L215.68 752.01H215.51Z" fill="#61ccff" opacity="1" stroke-width="4" stroke="none"></path><path d="M229.25 721.4L218.99 683 218.82 683.08C213.65 685.79 212.37 693.51 210.85 702.41 208.73 715.3 206.02 731.32 189.74 737.51H189.65C196.1 743.11 204.49 748.03 215.51 752.01H215.68L215.77 751.84C215.77 751.59 220.94 733.95 229.25 721.4Z" fill="#081921" opacity="0.2" stroke-width="4" stroke="none"></path><path d="M290.8 721.4L317.76 651.46 328.36 661.38 321.24 721.4H290.8Z" fill="#081921" opacity="0.2" stroke-width="4" stroke="none"></path><path d="M229.16 721.32L213.9 664.51" stroke="#081921" stroke-width="4" stroke-linecap="round" stroke-linejoin="round" opacity="1" fill="none"></path><path d="M208.73 702.92L221.53 696.73" stroke="#081921" stroke-width="4" stroke-linecap="round" stroke-linejoin="round" opacity="1" fill="none"></path><path d="M328.28 661.12L314.12 646.88" stroke="#081921" stroke-width="4" stroke-linecap="round" stroke-linejoin="round" opacity="1" fill="none"></path><path d="M378.39 620.42L377.54 631.45" stroke="#081921" stroke-width="4" stroke-linecap="round" stroke-linejoin="round" opacity="1" fill="none"></path><path d="M483.27 551.92C477.33 551.92 467.24 553.95 463.43 556.24" stroke="#030202" stroke-width="4" stroke-linecap="round" stroke-linejoin="round" opacity="1" fill="none"></path><path d="M484.37 563.7C478.43 562.94 466.48 568.2 466.48 568.2" stroke="#030202" stroke-width="4" stroke-linecap="round" stroke-linejoin="round" opacity="1" fill="none"></path><path d="M487.34 574.81C483.52 574.05 475.38 575.57 470.12 579.3" stroke="#030202" stroke-width="4" stroke-linecap="round" stroke-linejoin="round" opacity="1" fill="none"></path><path d="M473.68 592.19L477.16 586.51" stroke="#030202" stroke-width="4" stroke-linecap="round" stroke-linejoin="round" opacity="1" fill="none"></path><path d="M292.84 549.29C289.02 547.85 286.14 546.41 286.14 546.41" stroke="#030202" stroke-width="4" stroke-linecap="round" stroke-linejoin="round" opacity="1" fill="none"></path><path d="M144.63 625.85C141.83 613.22 148.36 601.01 162.18 593.21 155.23 574.47 156.75 556.41 166.59 542.17 176.76 527.5 194.15 519.02 214.41 519.02 220.68 519.02 227.04 519.87 233.49 521.48 233.23 520.04 232.98 518.68 232.72 517.49 232.38 515.8 232.13 514.36 231.96 513.34L231.79 512.24C229.5 500.11 225.26 477.48 238.32 465.78 246.71 458.31 258.75 454.07 271.39 454.07 278.08 454.07 284.78 455.26 290.72 457.64 299.03 460.86 304.62 466.11 308.86 474.34 308.86 474.34 303.6 481.38 293.94 481.38 291.82 481.38 289.53 481.04 289.86 481.21 292.07 489.01 288.82 501.86 284.84 507.43L283.61 509 283.19 509.57C282.4 509.02 273.08 502.32 264.6 502.32 259.69 502.32 256.21 504.61 254.26 509.19 248.24 523.34 271.81 535.64 272.06 535.81H272.15V535.89C273.67 541.83 274.78 568.62 260.96 586.43 252.9 596.77 241.37 602.03 226.62 602.03 218.39 602.03 209.15 600.33 199.06 597.11 198.13 598.89 188.38 618.39 178.54 650.78 178.54 650.78 150.23 651.63 144.63 625.85Z" fill="#010005" opacity="1" stroke-width="4" stroke="none"></path><path d="M340.83 833.32L417.56 832.64" stroke="#211800" stroke-width="4" stroke-linecap="round" stroke-linejoin="round" opacity="1" fill="none"></path><path d="M270.71 546.66C275.39 546.66 279.19 542.86 279.19 538.18 279.19 533.5 275.39 529.7 270.71 529.7 266.03 529.7 262.23 533.5 262.23 538.18 262.23 542.86 266.03 546.66 270.71 546.66Z" fill="#ffffff" opacity="1" stroke-width="4" stroke="none"></path><path d="M233.49 521.48C237.13 522.75 240.95 524.53 244.42 526.31" stroke="#010005" stroke-width="4" stroke-linecap="round" stroke-linejoin="round" opacity="1" fill="none"></path><path d="M162.18 593.21C164.05 597.62 166.42 601.94 168.96 606.01" stroke="#010005" stroke-width="4" stroke-linecap="round" stroke-linejoin="round" opacity="1" fill="none"></path><path d="M198.89 597.11C191.01 594.99 186.77 591.6 186.77 591.6" stroke="#010005" stroke-width="4" stroke-linecap="round" stroke-linejoin="round" opacity="1" fill="none"></path><path d="M403.57 591.77L445.28 624.24" stroke="#081921" stroke-width="4" stroke-linecap="round" stroke-linejoin="round" opacity="1" fill="none"></path><path d="M497.34 1004C493.1 1001.2 488.61 998.91 483.86 997.21L483.52 997.04 549.57 964.06 549.65 964.15C552.71 967.03 555.16 970.34 556.94 974.15L557.03 974.32 497.34 1004Z" fill="#525252" opacity="1" stroke-width="4" stroke="none"></path><path d="M349.9 1029.09C347.35 1024.94 344.47 1020.95 341.42 1017.31L341.25 1017.05H419.34L419.42 1017.14C420.78 1020.95 421.2 1024.94 421.2 1028.92V1029.09H349.9Z" fill="#525252" opacity="1" stroke-width="4" stroke="none"></path></g><g><path d="M252.65 855.22C258 855.22 262.4 859.55 262.4 864.9L262.33 890.23V995.03C262.33 1000.38 258 1004.71 252.65 1004.71 247.3 1004.71 242.97 1000.38 242.97 995.03V864.9C242.89 859.55 247.22 855.22 252.65 855.22Z" fill="#ffffff" opacity="1" stroke-width="4" stroke="none"></path><path d="M252.65 855.22C247.22 855.22 242.89 859.55 242.97 864.9V899.04L262.33 890.23 262.4 864.9C262.33 859.55 258 855.22 252.65 855.22Z" fill="#2c2c2c" opacity="0.2" stroke-width="4" stroke="none"></path><path d="M320.55 1017.69C319.21 1016.51 253.2 958.84 253.2 958.84H252.02C252.02 958.84 186.01 1016.51 184.67 1017.69 183.02 1018.63 181.21 1023.27 183.81 1026.26 185.85 1028.78 189.47 1029.41 192.23 1027.6 192.38 1027.52 228.5 1002.74 250.13 987.87 251.63 986.85 253.51 986.85 255.01 987.87 276.64 1002.74 312.84 1027.52 312.91 1027.6 315.75 1029.41 319.44 1028.7 321.33 1026.26 324.01 1023.19 322.2 1018.63 320.55 1017.69Z" fill="#ff4f32" opacity="1" stroke-width="4" stroke="none"></path><path d="M236.91 955.06H268.3C270.19 955.06 271.69 956.56 271.69 958.44V975.28H233.45V958.44C233.53 956.56 235.03 955.06 236.91 955.06Z" fill="#3c2c5b" opacity="1" stroke-width="4" stroke="none"></path><path d="M233.53 849.09H271.77V875.28C271.77 876.62 270.67 877.8 269.25 877.8H235.97C234.63 877.8 233.53 876.7 233.53 875.28V849.09Z" fill="#3c2c5b" opacity="1" stroke-width="4" stroke="none"></path><path d="M196.08 833.51H309.14C316.69 833.51 322.75 839.64 322.75 847.12 322.75 854.67 316.61 860.73 309.14 860.73H196.08C188.53 860.73 182.47 854.59 182.47 847.12 182.47 839.64 188.61 833.51 196.08 833.51Z" fill="#ff4f32" opacity="1" stroke-width="4" stroke="none"></path></g></svg>