<svg xmlns="http://www.w3.org/2000/svg" height="1200" width="1600" version="1.1" xmlns:xlink="http://www.w3.org/1999/xlink" xmlns:svgjs="http://svgjs.com/svgjs"><rect fill="#f3ebe9" width="1600" height="1200"></rect><g><path d="M1183.63 686.29C1177.76 686.29 1172.7 683.99 1169.37 679.97 1165.92 675.82 1164.65 670.19 1165.92 664.32L1174.54 619.8C1176.96 607.73 1188.81 597.83 1200.89 597.83H1368.49C1374.35 597.83 1379.41 600.13 1382.75 604.16 1386.2 608.3 1387.47 613.94 1386.2 619.8L1377.57 664.32C1375.16 676.4 1363.31 686.29 1351.23 686.29H1183.63Z" fill="#112732" opacity="1" stroke-width="4" stroke="none"></path><path d="M1186.05 773.72C1185.93 773.72 1185.7 773.72 1185.59 773.72 1184.32 773.49 1183.52 772.22 1183.75 771.07L1200.31 685.95C1200.54 684.68 1201.81 683.88 1202.96 684.11 1204.22 684.34 1205.03 685.6 1204.8 686.75L1188.23 771.88C1188.12 772.91 1187.08 773.72 1186.05 773.72Z" fill="#231f20" opacity="1" stroke-width="4" stroke="none"></path><path d="M1318.33 773.72C1318.22 773.72 1317.99 773.72 1317.87 773.72 1316.61 773.49 1315.8 772.22 1316.03 771.07L1332.6 685.95C1332.83 684.68 1334.09 683.88 1335.24 684.11 1336.51 684.34 1337.31 685.6 1337.08 686.75L1320.52 771.88C1320.4 772.91 1319.37 773.72 1318.33 773.72Z" fill="#231f20" opacity="1" stroke-width="4" stroke="none"></path><path d="M1043.63 1008.38C1043.51 1008.38 1043.28 1008.38 1043.17 1008.38 1041.9 1008.15 1041.1 1006.88 1041.33 1005.73L1081.82 795.23C1082.05 793.96 1083.31 793.16 1084.46 793.39 1085.73 793.62 1086.53 794.88 1086.3 796.03L1045.81 1006.54C1045.7 1007.57 1044.66 1008.38 1043.63 1008.38Z" fill="#231f20" opacity="1" stroke-width="4" stroke="none"></path><path d="M1140.71 1008.38C1140.6 1008.38 1140.37 1008.38 1140.25 1008.38 1138.99 1008.15 1138.18 1006.88 1138.41 1005.73L1178.9 795.23C1179.13 793.96 1180.4 793.16 1181.55 793.39 1182.81 793.62 1183.62 794.88 1183.39 796.03L1142.9 1006.54C1142.78 1007.57 1141.75 1008.38 1140.71 1008.38Z" fill="#231f20" opacity="1" stroke-width="4" stroke="none"></path><path d="M1372.16 1008.38C1371.12 1008.38 1370.09 1007.57 1369.86 1006.54L1329.36 796.03C1329.13 794.77 1329.94 793.62 1331.2 793.39 1332.47 793.16 1333.62 793.96 1333.85 795.23L1374.34 1005.73C1374.57 1007 1373.77 1008.15 1372.5 1008.38 1372.39 1008.38 1372.27 1008.38 1372.16 1008.38Z" fill="#231f20" opacity="1" stroke-width="4" stroke="none"></path><path d="M1275.07 1008.38C1274.03 1008.38 1273 1007.57 1272.77 1006.54L1232.28 796.03C1232.05 794.77 1232.85 793.62 1234.12 793.39 1235.38 793.16 1236.53 793.96 1236.76 795.23L1277.26 1005.73C1277.49 1007 1276.68 1008.15 1275.41 1008.38 1275.41 1008.38 1275.18 1008.38 1275.07 1008.38Z" fill="#231f20" opacity="1" stroke-width="4" stroke="none"></path><path d="M1079.3 796.72C1072.28 796.72 1066.64 791.09 1066.64 784.07 1066.64 777.05 1072.28 771.42 1079.3 771.42H1335.82C1342.83 771.42 1348.47 777.05 1348.47 784.07 1348.47 791.09 1342.83 796.72 1335.82 796.72H1079.3Z" fill="#112732" opacity="1" stroke-width="4" stroke="none"></path><path d="M1228.84 796.72C1221.82 796.72 1216.19 791.09 1216.19 784.07 1216.19 777.05 1221.82 771.42 1228.84 771.42H1335.82C1342.83 771.42 1348.47 777.05 1348.47 784.07 1348.47 791.09 1342.83 796.72 1335.82 796.72H1228.84Z" fill="#112732" opacity="1" stroke-width="4" stroke="none"></path></g><g><path d="M422.76 686.29C428.62 686.29 433.69 683.99 437.02 679.97 440.47 675.82 441.74 670.19 440.47 664.32L431.85 619.8C429.43 607.73 417.58 597.83 405.5 597.83H237.9C232.04 597.83 226.97 600.13 223.64 604.16 220.19 608.3 218.92 613.94 220.19 619.8L228.82 664.32C231.23 676.4 243.08 686.29 255.16 686.29H422.76Z" fill="#112732" opacity="1" stroke-width="4" stroke="none"></path><path d="M420.34 773.72C420.46 773.72 420.69 773.72 420.8 773.72 422.07 773.49 422.87 772.22 422.64 771.07L406.08 685.95C405.85 684.68 404.58 683.88 403.43 684.11 402.17 684.34 401.36 685.6 401.59 686.75L418.16 771.88C418.27 772.91 419.31 773.72 420.34 773.72Z" fill="#231f20" opacity="1" stroke-width="4" stroke="none"></path><path d="M288.06 773.72C288.17 773.72 288.4 773.72 288.52 773.72 289.78 773.49 290.59 772.22 290.36 771.07L273.79 685.95C273.56 684.68 272.3 683.88 271.15 684.11 269.88 684.34 269.08 685.6 269.31 686.75L285.87 771.88C285.99 772.91 287.02 773.72 288.06 773.72Z" fill="#231f20" opacity="1" stroke-width="4" stroke="none"></path><path d="M562.76 1008.38C562.88 1008.38 563.11 1008.38 563.22 1008.38 564.49 1008.15 565.29 1006.88 565.06 1005.73L524.57 795.23C524.34 793.96 523.08 793.16 521.93 793.39 520.66 793.62 519.86 794.88 520.09 796.03L560.58 1006.54C560.69 1007.57 561.73 1008.38 562.76 1008.38Z" fill="#231f20" opacity="1" stroke-width="4" stroke="none"></path><path d="M465.68 1008.38C465.79 1008.38 466.02 1008.38 466.14 1008.38 467.4 1008.15 468.21 1006.88 467.98 1005.73L427.49 795.23C427.26 793.96 425.99 793.16 424.84 793.39 423.57 793.62 422.77 794.88 423 796.03L463.49 1006.54C463.61 1007.57 464.64 1008.38 465.68 1008.38Z" fill="#231f20" opacity="1" stroke-width="4" stroke="none"></path><path d="M234.23 1008.38C235.27 1008.38 236.3 1007.57 236.53 1006.54L277.03 796.03C277.26 794.77 276.45 793.62 275.18 793.39 273.92 793.16 272.77 793.96 272.54 795.23L232.05 1005.73C231.82 1007 232.62 1008.15 233.89 1008.38 234 1008.38 234.12 1008.38 234.23 1008.38Z" fill="#231f20" opacity="1" stroke-width="4" stroke="none"></path><path d="M331.32 1008.38C332.36 1008.38 333.39 1007.57 333.62 1006.54L374.11 796.03C374.34 794.77 373.54 793.62 372.27 793.39 371.01 793.16 369.86 793.96 369.63 795.23L329.13 1005.73C328.9 1007 329.71 1008.15 330.97 1008.38 330.97 1008.38 331.2 1008.38 331.32 1008.38Z" fill="#231f20" opacity="1" stroke-width="4" stroke="none"></path><path d="M527.09 796.72C534.11 796.72 539.74 791.09 539.74 784.07 539.74 777.05 534.11 771.42 527.09 771.42H270.57C263.55 771.42 257.92 777.05 257.92 784.07 257.92 791.09 263.55 796.72 270.57 796.72H527.09Z" fill="#112732" opacity="1" stroke-width="4" stroke="none"></path><path d="M377.55 796.72C384.57 796.72 390.2 791.09 390.2 784.07 390.2 777.05 384.57 771.42 377.55 771.42H270.57C263.55 771.42 257.92 777.05 257.92 784.07 257.92 791.09 263.55 796.72 270.57 796.72H377.55Z" fill="#112732" opacity="1" stroke-width="4" stroke="none"></path></g><g><path d="M578.14 570.68C601.9 566.77 647.4 558.43 662.92 557.27 678.65 552.73 687.62 568.35 669.46 574.69 664.92 576.69 682.55 578.7 673.68 593.9 674.42 594.96 679.7 603.19 670.41 611.64 672.42 617.34 671.78 624.31 663.34 629.48 664.29 632.33 661.44 639.83 651.83 643.63 645.29 646.58 639.59 641.83 642.75 634.86 639.8 633.39 638.85 630.64 639.59 627.58 626.49 632.65 607.91 639.09 589.33 644.26 589.23 644.37 572.55 610.48 572.55 610.48 572.55 610.48 577.83 570.47 578.14 570.68Z" fill="#e59763" opacity="1" stroke-width="4" stroke="none"></path><path d="M660.28 581.55L648.98 590.31" stroke="#030202" stroke-width="4" stroke-linecap="round" stroke-linejoin="round" opacity="1" fill="none"></path><path d="M631.46 960.77L565.47 957.28 560.72 949.47C557.34 933.63 553.65 914.31 550.48 892.25H651.51C652.89 902.07 655.42 912.1 658.69 921.49V921.6L631.46 960.77Z" fill="#e59763" opacity="1" stroke-width="4" stroke="none"></path><path d="M404.9 641.41H453.14C453.14 641.41 569.06 648.91 610.87 690.82 642.44 722.38 643.6 787.94 646.98 845.38 648.03 862.16 649.3 878.21 651.51 892.57H550.38C550.17 890.77 549.85 888.98 549.64 887.18 547.74 872.51 546.26 858.36 545.2 845.38 542.04 803.78 543.2 773.48 543.2 773.48L466.76 771.79C466.76 771.79 419.68 770.21 404.58 731.67 389.91 693.14 404.9 641.41 404.9 641.41Z" fill="#5832f1" opacity="1" stroke-width="4" stroke="none"></path><path d="M616.36 949.47L614.04 933.95C613.19 928.04 617.2 922.44 623.22 921.6 623.75 921.49 624.28 921.49 624.91 921.49H658.48C658.69 921.49 658.8 921.6 658.9 921.81 660.7 926.67 663.13 931.21 665.87 935.53 678.75 954.33 701.87 961.82 716.34 979.56 718.98 982.51 721.19 987.58 721.93 990.75 721.93 990.85 718.45 993.6 718.34 993.6L570.01 990.85C570.01 990.85 569.91 990.85 569.91 990.75 567.27 981.35 564.21 965.2 560.72 949.58 560.72 949.47 560.72 949.47 560.83 949.47H616.36V949.47Z" fill="#ffc930" opacity="1" stroke-width="4" stroke="none"></path><path d="M720.66 987.05C723.2 993.49 724.25 1000.46 723.41 1007.32 723.41 1007.43 723.41 1007.43 723.3 1007.43H576.56C576.56 1007.43 573.92 1000.57 569.91 987.05 569.91 987.05 720.66 986.95 720.66 987.05Z" fill="#271f0a" opacity="1" stroke-width="4" stroke="none"></path><path d="M561.57 718.69C618.47 718.69 602.63 801.35 599.26 892.57 596.93 953.69 631.46 945.14 657.22 979.45 659.01 981.88 660.49 984.31 661.76 986.95 664.29 993.39 665.34 1000.36 664.5 1007.32H587.43C587.43 1007.32 584.79 1000.46 580.78 986.95 578.14 977.55 574.76 965.1 571.28 949.36 567.9 933.53 564.31 914.63 561.14 892.46 560.93 890.67 560.62 888.87 560.41 887.08 558.51 872.4 557.03 858.26 555.97 845.27 552.8 803.67 553.97 773.38 553.97 773.38 553.97 773.38 476.48 718.69 561.57 718.69Z" fill="#4a4a4a" opacity="0.2" stroke-width="4" stroke="none"></path><path d="M547.84 962.77L476.37 958.87 473.73 949.89C471.2 933 468.87 912.94 467.5 892.57L532.85 879.79 574.45 892.04C574.02 902.39 574.02 912.84 574.55 921.6 574.55 921.49 547.74 962.14 547.84 962.77Z" fill="#e59763" opacity="1" stroke-width="4" stroke="none"></path><path d="M530.53 949.47L528.21 933.95C527.36 928.04 531.37 922.44 537.39 921.6 537.92 921.49 538.45 921.49 539.08 921.49H574.34C574.45 921.49 574.45 921.49 574.45 921.6 574.66 925.82 575.08 929.73 575.61 933.42 578.88 956.23 612.77 962.77 625.44 981.46 627.66 983.68 628.92 988.11 629.66 990.75 629.66 990.85 629.66 990.85 629.56 990.85L480.07 987.05C480.07 987.05 479.96 987.05 479.96 986.95 477.74 977.34 475.84 964.88 473.73 950 473.73 949.89 473.73 949.89 473.84 949.89L530.53 949.47Z" fill="#ffc930" opacity="1" stroke-width="4" stroke="none"></path><path d="M312.63 641.41H429.71C429.71 641.41 521.87 649.96 562.73 690.82 589.12 717.21 582.89 784.04 577.72 845.38 576.35 861.85 574.97 877.79 574.45 892.57H467.5C467.4 890.77 467.29 888.98 467.19 887.18 466.13 871.77 465.92 857.83 465.81 845.38 465.5 801.04 469.3 774.64 469.61 772.64 469.61 772.53 469.61 772.53 469.51 772.53H374.91C374.91 772.53 327.72 770.21 312.63 731.67 297.53 693.14 312.63 641.41 312.63 641.41Z" fill="#5832f1" opacity="1" stroke-width="4" stroke="none"></path><path d="M306.82 673.19C306.82 673.08 306.82 673.08 306.82 673.19L344.51 673.08V673.4C344.51 673.82 348.73 725.23 315.16 737.27H315.06C314.11 735.48 313.26 733.79 312.52 731.89 305.24 712.78 305.03 690.82 306.82 673.19Z" fill="#ffffff" opacity="1" stroke-width="4" stroke="none"></path><path d="M312.63 641.41H417.88C417.88 641.41 452.62 686.91 436.57 685.33 425.8 684.27 407.11 662.84 398.56 662.84 372.06 660.31 347.99 704.01 306.4 704.01 303.65 672.24 312.63 641.41 312.63 641.41Z" fill="#4a4a4a" opacity="0.2" stroke-width="4" stroke="none"></path><path d="M520.18 663.79C536.23 670.65 551.43 679.42 562.73 690.71 589.12 717.11 582.89 783.93 577.72 845.27 576.35 861.74 575.08 877.68 574.45 892.46 574.02 902.81 574.02 912.52 574.55 921.39 574.76 925.61 575.19 929.62 575.71 933.32 578.88 955.8 609.6 961.72 623.96 979.45 625.76 981.78 627.23 984.31 628.5 986.95" stroke="#4a4a4a" stroke-width="4" stroke-linecap="round" stroke-linejoin="round" opacity="1" fill="none"></path><path d="M628.39 987.05C630.93 993.49 631.98 1000.46 631.14 1007.43H484.39C484.39 1007.43 484.29 1007.43 484.29 1007.32 484.08 1006.48 482.39 999.09 479.96 987.05H628.39V987.05Z" fill="#271f0a" opacity="1" stroke-width="4" stroke="none"></path><path d="M585.64 950.63L574.55 957.28" stroke="#271f0a" stroke-width="4" stroke-linecap="round" stroke-linejoin="round" opacity="1" fill="none"></path><path d="M596.62 958.76L586.38 968.16" stroke="#271f0a" stroke-width="4" stroke-linecap="round" stroke-linejoin="round" opacity="1" fill="none"></path><path d="M538.97 655.77C557.56 652.92 589.44 644.26 589.44 644.26L578.14 570.78H577.93C544.04 575.96 521.55 579.97 518.28 580.6 517.23 577.33 506.46 547.98 490.83 510.08 475.74 473.34 460.96 463.2 447.23 456.02 436.25 450.32 427.91 448.95 426.43 448.85 426.43 448.85 426.33 448.85 426.33 448.74L424.75 438.71 362.56 436.92 359.5 438.71C360.03 441.88 360.24 445.68 360.45 446.63 350.74 448.42 342.08 451.59 333.32 456.02 326.98 459.19 321.18 463.1 315.79 467.74 306.19 476.08 285.28 505.96 275.15 559.7 269.87 588.62 269.87 610.69 275.15 625.26 284.54 651.12 307.77 655.03 320.76 655.03L390.65 654.61H390.75L403 642.78 453.14 641.41C498.75 646.48 502.24 647.22 538.97 655.77Z" fill="#ffffff" opacity="1" stroke-width="4" stroke="none"></path><path d="M469.4 772.53C466.97 772.53 426.12 772.53 420.21 772.53 420.1 772.53 420.1 772.32 420.21 772.32 442.9 765.67 456.84 739.7 475.53 739.59 475.63 739.59 475.63 739.7 475.63 739.7 471.72 758.91 469.72 771.37 469.4 772.53 469.51 772.53 469.51 772.53 469.4 772.53Z" fill="#4a4a4a" opacity="0.2" stroke-width="4" stroke="none"></path><path d="M469.51 772.53C470.99 763.98 475.63 739.59 475.63 739.59" stroke="#4a4a4a" stroke-width="4" stroke-linecap="round" stroke-linejoin="round" opacity="1" fill="none"></path><path d="M424.75 438.61L423.16 428.26C423.16 428.15 423.27 428.15 423.27 428.15 433.51 432.27 451.45 429.21 456.63 420.87 463.17 411.68 463.38 400.92 457.16 381.28V381.17C463.07 372.94 464.86 367.34 451.77 365.87 451.77 365.87 451.67 365.87 451.67 365.76 448.39 356.15 446.07 348.45 442.9 342.22 438.79 333.98 433.19 328.39 422.21 324.38 402.36 316.25 375.02 320.15 359.82 334.19 342.5 350.24 347.36 372.41 350.32 389.62 352.22 400.49 358.97 436.6 359.29 438.5 359.29 438.5 359.29 438.61 359.4 438.61H424.43C424.64 438.71 424.75 438.61 424.75 438.61Z" fill="#e59763" opacity="1" stroke-width="4" stroke="none"></path><path d="M359.29 420.13C364.04 420.13 375.65 419.18 381.46 411.26 381.57 411.05 381.57 410.84 381.35 410.63 375.34 406.09 355.81 387.61 369.53 373.78 379.35 362.17 402.15 376.85 404.58 379.17 404.58 379.17 404.58 379.17 404.69 379.17 405.64 378.85 415.77 368.51 412.29 348.34 411.97 346.55 413.55 345.07 415.35 345.49 426.12 348.55 439.53 347.39 443.22 342.43V342.32C429.71 308.33 381.25 307.59 357.5 328.49 341.87 342.43 345.57 363.44 349.26 383.5 349.26 383.5 353.8 408.62 356.12 420.02 356.12 420.02 356.12 420.13 356.23 420.13 356.44 420.13 357.39 420.13 359.29 420.13Z" fill="#010005" opacity="1" stroke-width="4" stroke="none"></path><path d="M441 390.36C442.8 393.95 448.08 394.48 450.72 393.53" stroke="#030202" stroke-width="4" stroke-linecap="round" stroke-linejoin="round" opacity="1" fill="none"></path><path d="M439.74 372.31C437.98 372.31 436.57 370.88 436.57 369.14 436.57 367.39 437.98 365.97 439.74 365.97 441.49 365.97 442.9 367.39 442.9 369.14 442.9 370.88 441.49 372.31 439.74 372.31Z" fill="#010005" opacity="1" stroke-width="4" stroke="none"></path><path d="M479.64 644.15C472.57 632.23 473.2 613.22 472.46 596.01 471.72 579.76 469.4 566.77 463.38 566.77 463.28 566.77 463.28 566.77 463.28 566.88L453.25 641.41 479.54 644.47 479.64 644.15Z" fill="#d7d7d7" opacity="0.2" stroke-width="4" stroke="none"></path><path d="M393.71 395.95L385.26 388.56" stroke="#030202" stroke-width="4" stroke-linecap="round" stroke-linejoin="round" opacity="1" fill="none"></path><path d="M360.45 446.63H372.59" stroke="#d7d7d7" stroke-width="4" stroke-linecap="round" stroke-linejoin="round" opacity="1" fill="none"></path><path d="M378.29 587.57C366.15 579.33 361.3 563.29 358.34 552.41 355.91 534.99 347.25 535.1 346.41 535.2 346.2 535.1 338.81 584.51 338.7 584.51 351.06 585.35 371.11 587.04 378.19 587.78 378.29 587.78 378.4 587.57 378.29 587.57Z" fill="#d7d7d7" opacity="0.2" stroke-width="4" stroke="none"></path><path d="M409.01 421.92C415.98 425.41 421.79 427.52 422.95 427.94 423.06 427.94 423.16 428.15 423.16 428.26L424.75 438.71 425.38 442.83C425.48 443.25 425.06 443.36 424.75 443.14L408.49 422.56C408.28 422.24 408.59 421.71 409.01 421.92Z" fill="#030202" opacity="0.2" stroke-width="4" stroke="none"></path><path d="M678.54 949.05L666.51 957.28" stroke="#271f0a" stroke-width="4" stroke-linecap="round" stroke-linejoin="round" opacity="1" fill="none"></path><path d="M689.63 957.81L678.33 968.16" stroke="#271f0a" stroke-width="4" stroke-linecap="round" stroke-linejoin="round" opacity="1" fill="none"></path><path d="M463.28 566.77L454.41 629.48" stroke="#d7d7d7" stroke-width="4" stroke-linecap="round" stroke-linejoin="round" opacity="1" fill="none"></path><path d="M518.39 580.6L529.79 578.59" stroke="#d7d7d7" stroke-width="4" stroke-linecap="round" stroke-linejoin="round" opacity="1" fill="none"></path><path d="M346.3 535.2L338.7 584.51" stroke="#d7d7d7" stroke-width="4" stroke-linecap="round" stroke-linejoin="round" opacity="1" fill="none"></path><path d="M488.19 697.05C491.26 697.05 495.06 695.25 495.69 686.49 495.8 686.49 496.01 686.49 496.11 686.49 511.1 685.01 492.1 652.07 485.55 642.36 485.45 642.15 485.66 642.04 485.77 642.04 488.09 641.62 494.95 640.14 496.32 636.34 497.17 634.65 495.9 631.59 494.53 630.11 478.69 611.96 428.55 592.53 395.4 589.57 395.4 589.57 395.29 589.57 395.29 589.68 394.66 592.11 390.43 651.02 390.33 654.61 390.33 654.71 390.33 654.71 390.43 654.71 392.33 654.71 414.19 654.92 414.4 654.92 428.23 654.92 436.25 686.81 446.07 687.65 452.83 686.91 451.77 677.94 450.72 672.24 450.72 672.13 450.82 672.03 450.93 672.03 451.24 672.03 451.24 672.34 451.35 672.45 456.73 681.84 468.66 702.01 481.65 695.36 482.7 695.36 485.13 697.05 488.19 697.05Z" fill="#e59763" opacity="1" stroke-width="4" stroke="none"></path><path d="M395.29 589.57C395.29 589.57 378.82 586.62 338.7 584.51" stroke="#d7d7d7" stroke-width="4" stroke-linecap="round" stroke-linejoin="round" opacity="1" fill="none"></path><path d="M495.48 686.28C485.55 664.11 465.5 637.71 465.5 637.71" stroke="#030202" stroke-width="4" stroke-linecap="round" stroke-linejoin="round" opacity="1" fill="none"></path><path d="M481.75 694.72C473.94 677.83 452.83 645.11 452.83 645.11" stroke="#030202" stroke-width="4" stroke-linecap="round" stroke-linejoin="round" opacity="1" fill="none"></path><path d="M450.82 671.71L442.27 656.93" stroke="#000000" stroke-width="4" stroke-linecap="round" stroke-linejoin="round" opacity="1" fill="none"></path><path d="M648.98 590.31C643.17 594.54 642.75 600.76 646.76 604.57 639.69 609.53 637.47 617.13 642.75 621.67 638.42 626.74 637.9 632.54 642.75 634.86 640.75 639.51 642.44 644.37 647.71 644.47" stroke="#030202" stroke-width="4" stroke-linecap="round" stroke-linejoin="round" opacity="1" fill="none"></path><path d="M647.08 604.57C659.75 604.99 673.47 593.9 673.47 593.9" stroke="#030202" stroke-width="4" stroke-linecap="round" stroke-linejoin="round" opacity="1" fill="none"></path><path d="M643.07 621.67C652.36 622.93 670.2 611.64 670.2 611.64" stroke="#030202" stroke-width="4" stroke-linecap="round" stroke-linejoin="round" opacity="1" fill="none"></path><path d="M643.07 634.65C651.3 635.6 663.13 629.37 663.13 629.37" stroke="#030202" stroke-width="4" stroke-linecap="round" stroke-linejoin="round" opacity="1" fill="none"></path><path d="M409.01 421.92C409.01 421.92 418.73 426.25 423.16 428.05" stroke="#030202" stroke-width="4" stroke-linecap="round" stroke-linejoin="round" opacity="1" fill="none"></path></g><g><path d="M771.91 626.38C771.43 625.98 760.69 618.88 753.79 606.58 749.27 598.61 744.74 589.35 742.17 580.63 741.49 578.33 741.02 576.17 740.61 574.01 738.25 560.63 743.72 552.18 749.87 543.46 759.07 530.28 775.08 525.96 781.64 524.81L775.08 498.04 824.28 498.92 817.73 524.47C820.84 525.01 829.82 523.93 835.5 526.43 841.85 529.2 848.82 533.73 853.68 540.69 859.83 549.48 861.72 560.69 859.29 574.01 855.1 597.46 832.12 628.48 831.92 628.75H812.32L771.91 626.38Z" fill="#5832f1" opacity="1" stroke-width="4" stroke="none"></path><path d="M751.56 581.85C748.31 581.85 745.2 581.44 742.23 580.63 742.23 580.63 742.16 580.63 742.16 580.56 741.42 577.86 740.95 575.9 740.61 574.01 738.24 560.63 740.14 549.41 746.29 540.69 755.41 527.58 771.63 523.46 778.25 522.31 778.32 522.31 778.32 522.24 778.32 522.24L767.37 487.1C767.37 487.03 767.37 487.03 767.44 487.03H832.39C832.45 487.03 832.45 487.1 832.45 487.1L821.57 522.24C821.57 522.31 821.57 522.31 821.64 522.31 826.17 523.05 830.9 524.47 835.43 526.43L835.49 526.5C834.35 538.26 824.14 543.66 815.15 543.66 812.38 543.66 809.41 543.26 806.3 542.45 804.27 541.91 802.45 541.64 800.76 541.64 792.24 541.64 788.25 548.53 783.86 561.3 779.54 573.6 766.56 581.85 751.56 581.85Z" fill="#ffc930" opacity="1" stroke-width="4" stroke="none"></path><path d="M826.45 586.98C825.43 586.98 824.35 586.85 823.34 586.58 815.97 584.62 812.39 576.71 814.82 567.79 816.71 560.49 820.9 556.44 826.58 556.44 827.73 556.44 828.95 556.64 830.23 556.91 837.06 558.73 842.8 564.88 840.3 574.41 838.27 581.98 832.73 586.98 826.45 586.98Z" fill="#ffc930" opacity="1" stroke-width="4" stroke="none"></path><path d="M767.99 628.75C762.65 621.45 757.98 614.02 753.86 606.65V606.58C759.81 601.45 770.69 596.38 781.71 596.38 786.3 596.38 790.69 597.26 794.68 599.01 801.98 602.19 806.17 608.27 808.4 612.87 810.83 617.87 812.25 623.88 812.25 628.82L767.99 628.75Z" fill="#ffc930" opacity="1" stroke-width="4" stroke="none"></path><path d="M799.89 501.63C780.62 501.63 768.59 488.52 767.38 487.16 767.31 487.1 767.38 487.03 767.45 487.03H832.32C832.39 487.03 832.39 487.1 832.39 487.16 831.18 488.52 819.15 501.63 799.89 501.63Z" fill="#5832f1" opacity="1" stroke-width="4" stroke="none"></path><path d="M819.42 410.86C804.28 433.71 798.94 477.09 798.74 500.21" stroke="#231f20" stroke-width="4" stroke-linecap="round" stroke-linejoin="round" opacity="1" fill="none"></path><path d="M813.6 402.08C813.2 398.97 813.13 395.79 813.33 392.41 814.08 381.19 817.86 372.41 821.98 372.41 822.05 372.41 822.12 372.41 822.19 372.41 825.36 372.61 827.8 378.15 828.41 386.2 828.41 386.26 828.47 386.26 828.54 386.26 833.54 380.32 839.02 376.53 842.39 376.53 843.21 376.53 843.88 376.73 844.42 377.14 847.4 379.3 845.71 386.8 840.43 395.05 840.43 395.12 840.43 395.18 840.5 395.12 843.27 394.44 845.91 394.1 848.21 394.1 852.19 394.1 854.76 395.12 855.51 396.94 855.84 397.82 855.78 398.77 855.24 399.85 853.55 403.63 846.99 408.23 839.02 411.2 835.16 412.76 830.3 413.7 829.89 413.77H829.82L813.6 402.08Z" fill="#112732" opacity="1" stroke-width="4" stroke="none"></path><path d="M824.42 414.31C821.51 414.31 819.35 413.77 818.06 412.76 815.9 411.4 814.28 407.48 813.6 402.14 813.6 402.14 813.6 402.08 813.67 402.08 815.09 401.54 816.58 401.2 818 401.2 820.57 401.2 823 402.01 825.03 403.5 828.27 405.86 830.09 409.65 829.89 413.63 829.89 413.63 829.89 413.7 829.82 413.7 827.86 414.11 826.04 414.31 824.42 414.31Z" fill="#ffffff" opacity="1" stroke-width="4" stroke="none"></path><path d="M755.48 449.18C768.73 444.11 797.18 462.77 798.74 500.21" stroke="#231f20" stroke-width="4" stroke-linecap="round" stroke-linejoin="round" opacity="1" fill="none"></path><path d="M736.36 481.42C735.75 481.42 735.14 481.28 734.67 481.01 731.96 479.39 732.3 473.31 735.55 465.94 735.55 465.88 735.55 465.81 735.48 465.88 730.82 467.77 726.36 468.85 722.84 468.85 719.8 468.85 717.84 468.04 717.1 466.55 715.47 463.31 720.61 457.29 728.99 452.56 729.06 452.56 729.06 452.43 728.99 452.43 721.15 450.47 716.15 446.95 716.56 443.84 716.89 440.6 722.91 438.44 731.42 438.44 733.52 438.44 735.68 438.57 737.84 438.84 740.95 439.25 744.13 439.86 747.31 440.73 747.37 440.73 747.44 440.73 747.44 440.8L755.96 458.85V458.91C754.74 462.02 753.32 464.93 751.77 467.5 746.77 475.47 740.34 481.42 736.36 481.42Z" fill="#112732" opacity="1" stroke-width="4" stroke="none"></path><path d="M755.95 458.85C751.89 458.31 748.52 455.87 746.76 452.22 745 448.57 745.14 444.18 747.23 440.8 747.23 440.8 747.3 440.73 747.3 440.8 752.64 442.56 756.15 444.79 757.17 447.02 758.31 449.18 757.91 453.64 755.95 458.85Z" fill="#ffffff" opacity="1" stroke-width="4" stroke="none"></path><path d="M845.64 527.85C827.8 513.59 853.61 495.27 843.27 471.42 835.77 454.05 801.71 462.5 798.74 500.21" stroke="#231f20" stroke-width="4" stroke-linecap="round" stroke-linejoin="round" opacity="1" fill="none"></path><path d="M857.8 562.99C851.78 563.4 843.2 545.89 842.25 536.7V536.63C842.73 535.96 854.55 520.82 854.55 520.82 863.27 519.4 879.02 522.17 882.8 527.04 886.65 532.17 878.68 535.15 869.89 535.69 869.83 535.69 869.83 535.76 869.83 535.82 878 542.78 883.82 552.79 875.1 553.26 871.52 553.26 866.18 551.17 860.84 547.58 860.77 547.58 860.7 547.58 860.7 547.65 862.53 556.1 862.12 562.25 857.8 562.99Z" fill="#112732" opacity="1" stroke-width="4" stroke="none"></path><path d="M843.27 536.77C842.94 536.77 842.6 536.77 842.33 536.7 842.33 536.7 842.26 536.7 842.26 536.63 841.38 531.09 841.85 526.97 843.48 525.21 844.96 523.05 849.02 521.5 854.56 520.89 855.84 524.74 855.17 528.86 852.8 532.04 850.5 535.01 847.06 536.77 843.27 536.77Z" fill="#ffffff" opacity="1" stroke-width="4" stroke="none"></path></g><g><path d="M610.32 566.64H675.75C676.49 566.64 676.68 567.66 675.94 567.94 669.74 569.88 657.34 574.23 644.19 581.17 631.33 587.93 617.72 597.19 608.56 609.03H566.17C566.17 609.03 567.84 602.09 573.95 593.39 580.05 584.6 590.79 574.14 608.84 567.01 609.3 566.74 609.86 566.64 610.32 566.64Z" fill="#ffc930" opacity="1" stroke-width="4" stroke="none"></path><path d="M644.19 581.08C631.42 587.84 617.82 597 608.65 608.94H566.26C566.26 608.94 567.84 602 573.95 593.3L644.19 581.08Z" fill="#433306" opacity="0.3" stroke-width="4" stroke="none"></path><path d="M700.84 629.67H602.45V608.29C602.45 608.29 623.83 593.67 651.6 593.67 675.01 593.67 693.99 604.13 699.26 607.37 700.19 607.92 700.74 608.94 700.74 610.05L700.84 629.67Z" fill="#ffc930" opacity="1" stroke-width="4" stroke="none"></path><path d="M602.91 629.67H504.16V608.48C504.16 608.29 504.25 608.2 504.35 608.11 506.47 606.72 527.02 593.58 553.31 593.58 581.07 593.58 602.91 608.2 602.91 608.2V629.67Z" fill="#ffc930" opacity="1" stroke-width="4" stroke="none"></path><path d="M504.62 608.29C504.62 608.29 526 593.67 553.77 593.67 581.53 593.67 602.91 608.29 602.91 608.29V629.67" stroke="#000000" stroke-width="4" stroke-linecap="round" stroke-linejoin="round" opacity="1" fill="none"></path></g><g><path d="M1147.52 651.58H452.39C446.03 651.58 440.79 646.43 440.79 639.98 440.79 633.62 445.93 628.38 452.39 628.38H1147.52C1153.88 628.38 1159.12 633.52 1159.12 639.98 1159.12 646.34 1153.97 651.58 1147.52 651.58Z" fill="#112732" opacity="1" stroke-width="4" stroke="none"></path></g><g><path d="M1003.36 895.16L911.63 847.85 908.85 858.89C906.56 870.91 904.58 880.15 903.28 883.33L908.85 944.15H982.39L992.73 939.19C997 927.46 1000.18 916.23 1003.26 904.9L1003.36 895.16Z" fill="#ca7358" opacity="1" stroke-width="4" stroke="none"></path><path d="M1144.18 937.69L1146.87 931.63C1145.57 919.81 1143.88 907.98 1141.7 896.95L1136.63 881.74 1034.67 883.43 1036.95 896.35C1039.63 905.3 1041.72 914.84 1042.32 921.1L1069.25 973.17 1144.18 937.69Z" fill="#ca7358" opacity="1" stroke-width="4" stroke="none"></path><path d="M1219.02 669.57L1211.96 637.07 1095.39 643.33 1088.33 647.01C1088.33 647.01 994.12 654.56 958.74 690.83 930.91 719.55 927.53 759.11 916.8 815.85 914.02 831.06 911.33 846.46 908.85 858.79L1003.26 904.9C1019.76 842.89 1021.25 812.08 1021.05 771.93L1135.54 772.23C1189.8 772.62 1230.44 722.44 1219.02 669.57Z" fill="#ffffff" opacity="1" stroke-width="4" stroke="none"></path><path d="M1021.15 772.13L1001.07 721.84C968.78 747.78 975.14 803.43 1009.82 878.66 1020.16 833.25 1021.15 805.92 1021.15 772.13Z" fill="#7b7b7b" opacity="0.2" stroke-width="4" stroke="none"></path><path d="M1266.22 688.45C1258.97 657.14 1247.44 637.37 1247.44 637.37L1182.64 641.44C1182.64 641.44 1048.18 656.45 1007.04 705.44 973.35 745.39 1020.35 842.49 1037.05 896.95H1141.9C1132.85 849.74 1117.85 808.4 1099.86 772.72H1185.33C1250.52 772.72 1276.06 731.68 1266.22 688.45Z" fill="#ffffff" opacity="1" stroke-width="4" stroke="none"></path><path d="M1082.27 740.52L1099.46 772.72C1099.46 772.72 1195.76 772.72 1167.54 772.72 1130.67 772.62 1095.68 736.55 1082.27 740.52Z" fill="#7b7b7b" opacity="0.2" stroke-width="4" stroke="none"></path><path d="M1061 670.86C1038.74 679.8 1018.96 691.13 1006.74 705.54 983.19 733.57 999.48 789.82 1016.98 839.8" stroke="#8d8d8d" stroke-width="4" stroke-linecap="round" stroke-linejoin="round" opacity="1" fill="none"></path><path d="M1037.15 897.15H1141.7" stroke="#8d8d8d" stroke-width="4" stroke-linecap="round" stroke-linejoin="round" opacity="1" fill="none"></path><path d="M908.85 858.79L1003.26 904.9" stroke="#8d8d8d" stroke-width="4" stroke-linecap="round" stroke-linejoin="round" opacity="1" fill="none"></path><path d="M1095.49 377.09C1096.68 363.08 1094.29 339.62 1104.93 325.81 1115.46 311.8 1150.64 318.75 1177.48 330.48 1201.53 340.91 1203.02 355.03 1203.02 377.29V447.55L1200.73 480.25 1132.95 490.78V431.05C1132.95 431.05 1112.38 436.62 1101.45 426.48 1087.24 413.36 1094.19 391.1 1095.49 377.09Z" fill="#ca7358" opacity="1" stroke-width="4" stroke="none"></path><path d="M1150.54 424.79L1133.65 440.39C1133.35 440.69 1132.85 440.49 1132.85 440.1V431.35C1132.85 431.15 1132.95 430.95 1133.15 430.95 1134.74 430.46 1141.8 428.27 1149.95 424 1150.54 423.8 1150.94 424.39 1150.54 424.79Z" fill="#171717" opacity="0.2" stroke-width="4" stroke="none"></path><path d="M1083.66 469.41C1104.93 448.15 1128.98 443.47 1132.95 442.98 1132.95 442.98 1133.45 470.51 1161.18 470.51 1187.71 470.51 1203.21 442.98 1203.21 442.98 1218.92 447.05 1233.43 454.41 1246.45 463.95L1252.81 647.6 1088.53 647.6 1094.99 587.87C1092.21 591.95 1087.14 597.71 1083.66 601.49L1040.93 518.31C1051.36 504.59 1069.25 483.92 1083.66 469.41Z" fill="#5832f1" opacity="1" stroke-width="4" stroke="none"></path><path d="M1236.21 541.66L1252.71 647.4H1191.98L1210.77 563.43C1211.76 558.86 1214.64 554.88 1218.72 552.4L1236.21 541.66Z" fill="#130f20" opacity="0.2" stroke-width="4" stroke="none"></path><path d="M1098.96 548.82L1094.89 587.87C1094.89 587.97 1094.79 588.07 1094.79 588.17 1092.01 592.15 1088.63 596.02 1085.15 599.8 1081.47 603.68 1076.31 607.95 1070.34 612.02 1069.85 612.42 1069.05 611.83 1069.35 611.23L1097.67 548.52C1097.97 547.82 1099.06 548.12 1098.96 548.82Z" fill="#130f20" opacity="0.2" stroke-width="4" stroke="none"></path><path d="M1100.06 545.24L1094.79 590.16" stroke="#221e30" stroke-width="4" stroke-linecap="round" stroke-linejoin="round" opacity="1" fill="none"></path><path d="M1172.7 387.03L1163.36 393.68" stroke="#282625" stroke-width="4" stroke-linecap="round" stroke-linejoin="round" opacity="1" fill="none"></path><path d="M1132.95 431.05C1142.69 427.77 1147.26 425.49 1147.26 425.49" stroke="#282625" stroke-width="4" stroke-linecap="round" stroke-linejoin="round" opacity="1" fill="none"></path><path d="M1122.02 402.13C1120.23 404.82 1117.45 406.21 1114.27 406.6" stroke="#282625" stroke-width="4" stroke-linecap="round" stroke-linejoin="round" opacity="1" fill="none"></path><path d="M1207.49 511.55C1209.67 466.23 1246.25 464.05 1246.25 464.05 1259.56 473.79 1286.89 504.3 1307.17 539.87L1229.45 576.64C1219.91 556.87 1206.79 526.16 1207.49 511.55Z" fill="#5832f1" opacity="1" stroke-width="4" stroke="none"></path><path d="M1095.49 632.6C1095.49 626.04 1124.6 617.59 1153.33 611.03 1182.44 604.27 1235.71 597.22 1239.39 596.72 1239.49 596.72 1239.59 596.62 1239.49 596.52 1238.79 595.13 1233.82 586.19 1228.26 574.06 1228.26 573.96 1228.26 573.86 1228.36 573.86L1305.28 536.69C1305.38 536.69 1305.48 536.69 1305.48 536.79 1315.42 554.09 1327.14 576.45 1332.71 596.72 1349.4 658.53 1304.28 666.29 1282.02 667.48 1260.26 668.67 1200.53 660.82 1199.04 660.62 1199.04 660.62 1199.04 660.62 1198.94 660.62 1197.75 661.02 1153.23 674.04 1139.01 674.04 1126.1 674.04 1125.6 668.77 1125.7 667.68 1125.7 667.58 1125.6 667.48 1125.5 667.58 1123.81 667.98 1110.99 670.66 1111.39 658.73 1111.39 658.63 1111.29 658.53 1111.19 658.53 1109.9 658.73 1102.05 660.03 1100.65 654.46 1098.37 645.81 1126.89 635.08 1134.84 631.9 1135.04 631.8 1134.94 631.6 1134.74 631.6 1119.54 635.78 1095.49 642.43 1095.49 632.6Z" fill="#ca7358" opacity="1" stroke-width="4" stroke="none"></path><path d="M1239.49 596.62L1261.75 607.65" stroke="#282625" stroke-width="4" stroke-linecap="round" stroke-linejoin="round" opacity="1" fill="none"></path><path d="M1228.16 573.96L1218.62 552.5" stroke="#221e30" stroke-width="4" stroke-linecap="round" stroke-linejoin="round" opacity="1" fill="none"></path><path d="M1125.7 667.38L1160.98 655.35" stroke="#282625" stroke-width="4" stroke-linecap="round" stroke-linejoin="round" opacity="1" fill="none"></path><path d="M1111.39 658.44C1111.39 658.44 1135.44 647.4 1155.51 640.15" stroke="#282625" stroke-width="4" stroke-linecap="round" stroke-linejoin="round" opacity="1" fill="none"></path><path d="M1135.34 631.6L1149.25 626.63" stroke="#282625" stroke-width="4" stroke-linecap="round" stroke-linejoin="round" opacity="1" fill="none"></path><path d="M1111.69 387.03C1110.99 388.72 1110 391.3 1110.49 392.79 1110.99 393.78 1111.69 394.48 1112.68 394.78" stroke="#282625" stroke-width="4" stroke-linecap="round" stroke-linejoin="round" opacity="1" fill="none"></path><path d="M1127.39 384.54C1125.58 384.54 1124.11 383.07 1124.11 381.26 1124.11 379.44 1125.58 377.98 1127.39 377.98 1129.2 377.98 1130.67 379.44 1130.67 381.26 1130.67 383.07 1129.2 384.54 1127.39 384.54Z" fill="#30242a" opacity="1" stroke-width="4" stroke="none"></path><path d="M1103.64 382.85C1101.83 382.85 1100.36 381.38 1100.36 379.57 1100.36 377.76 1101.83 376.29 1103.64 376.29 1105.44 376.29 1106.91 377.76 1106.91 379.57 1106.91 381.38 1105.44 382.85 1103.64 382.85Z" fill="#30242a" opacity="1" stroke-width="4" stroke="none"></path><path d="M1007.43 988.48C1018.37 970.29 1042.42 965.72 1042.52 929.15 1042.52 927.16 1042.52 924.87 1042.32 922.69 1042.12 921.69 1042.12 920.9 1042.02 919.91H1066.27C1074.81 919.91 1081.47 927.46 1079.98 936.1L1076.21 959.86C1076.21 959.86 1102.84 933.62 1146.87 931.63 1147.86 939.58 1148.46 947.43 1148.95 955.68 1149.15 958.66 1149.25 961.94 1149.45 964.93 1149.75 972.48 1150.24 980.83 1150.24 988.68L1149.15 990.76 1006.74 991.56 1007.43 988.78C1007.34 988.58 1007.43 988.48 1007.43 988.48Z" fill="#5832f1" opacity="1" stroke-width="4" stroke="none"></path><path d="M1007.34 988.68H1150.24C1150.44 995.24 1150.54 1002.19 1150.34 1009.15H1002.27C1002.27 1003.58 1003.06 998.91 1004.45 994.94 1005.25 992.65 1006.14 990.47 1007.34 988.68Z" fill="#231f20" opacity="1" stroke-width="4" stroke="none"></path><path d="M1039.92 948.88L1055.73 955.48" stroke="#000000" stroke-width="4" stroke-linecap="round" stroke-linejoin="round" opacity="1" fill="none"></path><path d="M1032.78 961.76L1045.7 971.68" stroke="#000000" stroke-width="4" stroke-linecap="round" stroke-linejoin="round" opacity="1" fill="none"></path><path d="M1076.4 959.66L1070.44 988.68" stroke="#000000" stroke-width="4" stroke-linecap="round" stroke-linejoin="round" opacity="1" fill="none"></path><path d="M842.36 926.76C860.15 915.33 883.81 921.99 900.4 889.3 901.4 887.51 902.19 885.52 903.18 883.33 903.18 883.13 903.38 883.13 903.38 883.13L920.58 891.38C929.52 895.66 932.4 906.89 926.84 914.94L914.51 932.73C914.51 932.73 951.28 920.2 992.73 939.19 990.04 946.24 987.26 953.4 984.28 960.65 983.09 963.43 981.79 966.42 980.6 969.4 977.62 976.45 974.34 983.61 970.86 990.66 970.56 991.26 969.77 992.85 969.67 993.05L841.97 927.06C841.97 927.06 842.07 926.96 842.36 926.76Z" fill="#5832f1" opacity="1" stroke-width="4" stroke="none"></path><path d="M837.79 930.54C839.28 929.25 840.57 927.96 842.07 926.96L970.56 991.36C967.78 997.32 964.8 1003.09 961.52 1009.15L828.95 943.06C831.53 937.6 834.51 933.52 837.79 930.54Z" fill="#231f20" opacity="1" stroke-width="4" stroke="none"></path><path d="M887.55 907.08L898.22 919.91" stroke="#000000" stroke-width="4" stroke-linecap="round" stroke-linejoin="round" opacity="1" fill="none"></path><path d="M874.97 914.94L881.22 928.65" stroke="#000000" stroke-width="4" stroke-linecap="round" stroke-linejoin="round" opacity="1" fill="none"></path><path d="M914.12 932.92L897.02 953.99" stroke="#000000" stroke-width="4" stroke-linecap="round" stroke-linejoin="round" opacity="1" fill="none"></path><path d="M1265.23 684.08H1234.42L1239.39 712.8C1241.38 724.23 1251.22 732.57 1262.94 732.57" stroke="#8d8d8d" stroke-width="4" stroke-linecap="round" stroke-linejoin="round" opacity="1" fill="none"></path><path d="M1099.66 772.72C1099.66 772.72 1090.72 756.03 1086.64 748.28" stroke="#8d8d8d" stroke-width="4" stroke-linecap="round" stroke-linejoin="round" opacity="1" fill="none"></path><path d="M1183.25 321.74C1166.54 307.33 1166.89 279.55 1184.03 259.69 1201.17 239.82 1228.6 235.4 1245.3 249.82 1262.01 264.23 1261.66 292.02 1244.53 311.87 1227.38 331.74 1199.95 336.16 1183.25 321.74Z" fill="#30242a" opacity="1" stroke-width="4" stroke="none"></path><path d="M1207.79 377.68C1207.59 382.06 1207.39 391 1207.09 401.04 1207.09 401.04 1254.1 375.1 1279.54 403.03 1293.55 418.43 1294.55 438.01 1293.85 448.64 1324.96 454.01 1325.15 506.08 1291.46 514.83 1284.11 504.79 1278.94 497.74 1272.18 489.69 1257.48 505.69 1231.54 516.02 1207.39 511.65 1142.89 495.25 1168.43 414.06 1168.43 414.06 1168.43 414.06 1197.25 394.88 1184.73 376.39 1175.69 363.67 1149.58 382.52 1148.4 381.66 1137.41 373.27 1140.61 350.43 1140.31 350.75 1112.48 363.67 1096.48 354.23 1096.48 354.23 1097.87 332.17 1103.83 322.23 1119.54 314.08 1138.22 305.93 1165.85 304.54 1185.43 317.06 1208.18 332.27 1207.79 361.49 1207.79 377.68Z" fill="#30242a" opacity="1" stroke-width="4" stroke="none"></path><path d="M1174.79 311.6C1178.57 312.99 1182.25 314.68 1185.62 316.86 1190.79 320.34 1194.77 324.62 1197.75 329.29" stroke="#191416" stroke-width="4" stroke-linecap="round" stroke-linejoin="round" opacity="1" fill="none"></path><path d="M1170.02 426.38C1164.15 426.38 1159.39 421.62 1159.39 415.75 1159.39 409.87 1164.15 405.11 1170.02 405.11 1175.89 405.11 1180.66 409.87 1180.66 415.75 1180.66 421.62 1175.89 426.38 1170.02 426.38Z" fill="#ffc930" opacity="1" stroke-width="4" stroke="none"></path><path d="M915.61 468.62C916.6 465.74 919.09 464.44 919.38 464.34 916.3 459.77 917.3 456 918.59 453.61 920.08 451.03 922.17 449.54 922.27 449.54 920.87 442.38 924.55 439.3 927.93 438.01 929.32 437.41 930.71 437.21 931.51 437.11 931.81 437.11 932 436.82 931.91 436.52 931.21 434.73 929.62 429.46 935.09 424.89 935.98 424.29 936.87 423.7 937.97 423.3 941.94 421.71 948.8 422.9 948.8 422.9 958.94 424.49 970.17 432.64 970.17 432.64 970.17 432.64 967.98 393.29 982.29 414.16 996.7 435.52 1030.59 531.13 1030.59 531.13 1030.59 531.13 1034.86 525.66 1041.52 517.41L1085.35 599.6C1075.01 611.43 1052.85 626.24 1023.83 626.24 953.07 626.24 948.6 491.48 948.6 491.48 948.6 491.48 945.32 490.28 941.05 488.1 940.35 489.49 939.06 490.58 937.17 491.38 932.9 493.07 922.76 486.8 917.3 477.36 915.31 474.08 914.81 471.1 915.61 468.62Z" fill="#ca7358" opacity="1" stroke-width="4" stroke="none"></path><path d="M1029.6 549.22L1030.59 531.33C1030.59 531.23 1030.59 531.13 1030.69 531.13 1031.09 530.53 1033.47 527.55 1036.75 523.48 1037.05 523.08 1037.65 523.38 1037.45 523.87L1030.39 549.41C1030.29 549.91 1029.6 549.81 1029.6 549.22Z" fill="#171717" opacity="0.2" stroke-width="4" stroke="none"></path><path d="M1030.59 531.23L1029.7 547.82" stroke="#282625" stroke-width="4" stroke-linecap="round" stroke-linejoin="round" opacity="1" fill="none"></path><path d="M941.05 488.49C942.54 485.81 941.94 483.03 940.55 479.75 940.45 479.45 940.75 479.15 941.05 479.25 942.74 480.05 946.32 481.34 949.5 480.15 950.49 479.75 951.38 479.15 952.18 478.26 955.76 474.18 953.27 469.91 952.38 468.42 952.28 468.22 952.38 468.02 952.58 468.02 953.37 468.12 955.06 468.12 956.65 467.52 958.44 466.83 959.83 465.54 960.63 463.55 962.51 459.47 959.53 455.4 958.24 453.91 958.04 453.61 958.14 453.31 958.54 453.21 959.24 453.11 960.23 453.02 961.22 452.62 963.21 451.82 964.3 450.53 964.4 448.74 965.2 440.79 955.66 436.32 950.49 433.93 949.2 433.34 948.1 432.74 947.61 432.34" stroke="#282625" stroke-width="4" stroke-linecap="round" stroke-linejoin="round" opacity="1" fill="none"></path><path d="M958.04 453.41C940.45 447.55 932.4 437.41 932.4 437.41" stroke="#282625" stroke-width="4" stroke-linecap="round" stroke-linejoin="round" opacity="1" fill="none"></path><path d="M952.28 468.32C939.46 464.34 925.84 454.41 922.46 449.74" stroke="#282625" stroke-width="4" stroke-linecap="round" stroke-linejoin="round" opacity="1" fill="none"></path><path d="M940.75 479.15C925.64 471.7 919.58 464.44 919.58 464.44" stroke="#282625" stroke-width="4" stroke-linecap="round" stroke-linejoin="round" opacity="1" fill="none"></path><path d="M970.17 432.74C970.17 436.92 971.56 446.06 971.56 446.06 971.56 446.06 964.3 467.82 969.97 485.51" stroke="#282625" stroke-width="4" stroke-linecap="round" stroke-linejoin="round" opacity="1" fill="none"></path><path d="M1207.09 400.94V415.75" stroke="#191416" stroke-width="4" stroke-linecap="round" stroke-linejoin="round" opacity="1" fill="none"></path><path d="M1272.28 489.49C1277.35 484.22 1281.63 476.47 1281.63 476.47" stroke="#191416" stroke-width="4" stroke-linecap="round" stroke-linejoin="round" opacity="1" fill="none"></path><path d="M1293.85 448.54C1293.85 448.54 1287.19 447.05 1277.55 448.54" stroke="#191416" stroke-width="4" stroke-linecap="round" stroke-linejoin="round" opacity="1" fill="none"></path></g></svg>