<svg xmlns="http://www.w3.org/2000/svg" height="1200" width="1600" version="1.1" xmlns:xlink="http://www.w3.org/1999/xlink" xmlns:svgjs="http://svgjs.com/svgjs"><rect fill="#f3ebe9" width="1600" height="1200"></rect><g><path d="M947.11 913.1H1239.63C1267.78 913.1 1293.06 890.24 1296.03 862.08L1327.07 566.78C1330.04 538.62 1309.6 515.76 1281.44 515.76H988.92C960.77 515.76 935.49 538.62 932.52 566.78L901.48 862.08C898.51 890.33 918.95 913.1 947.11 913.1Z" stroke="#231f20" stroke-width="4" stroke-linecap="round" stroke-linejoin="round" opacity="1" fill="none"></path><path d="M1094.95 515.85L1053.23 913.56" stroke="#231f20" stroke-width="4" stroke-linecap="round" stroke-linejoin="round" opacity="1" fill="none"></path><path d="M1016.06 515.85L974.24 913.56" stroke="#231f20" stroke-width="4" stroke-linecap="round" stroke-linejoin="round" opacity="1" fill="none"></path><path d="M1173.93 515.85L1132.12 913.56" stroke="#231f20" stroke-width="4" stroke-linecap="round" stroke-linejoin="round" opacity="1" fill="none"></path><path d="M1252.82 515.85L1211.01 913.56" stroke="#231f20" stroke-width="4" stroke-linecap="round" stroke-linejoin="round" opacity="1" fill="none"></path><path d="M912.35 754.57H1306.72" stroke="#231f20" stroke-width="4" stroke-linecap="round" stroke-linejoin="round" opacity="1" fill="none"></path><path d="M903.99 834.02H1298.36" stroke="#231f20" stroke-width="4" stroke-linecap="round" stroke-linejoin="round" opacity="1" fill="none"></path><path d="M929.08 595.58H1323.45" stroke="#231f20" stroke-width="4" stroke-linecap="round" stroke-linejoin="round" opacity="1" fill="none"></path><path d="M920.72 675.03H1315.08" stroke="#231f20" stroke-width="4" stroke-linecap="round" stroke-linejoin="round" opacity="1" fill="none"></path></g><g><path d="M377.35 251.94H707.52C733.68 251.94 754.87 277.94 754.87 310.03V713.33C754.87 745.42 733.68 771.42 707.52 771.42H377.35C351.19 771.42 330 745.42 330 713.33V309.9C330 277.94 351.19 251.94 377.35 251.94Z" fill="#000000" opacity="0.2" stroke-width="4" stroke="none"></path><path d="M398.54 225.93H728.72C754.87 225.93 776.07 251.94 776.07 284.02V687.32C776.07 719.41 754.87 745.42 728.72 745.42H398.54C372.39 745.42 351.19 719.41 351.19 687.32V283.9C351.19 251.94 372.39 225.93 398.54 225.93Z" fill="#ff9edd" opacity="1" stroke-width="4" stroke="none"></path></g><g><path d="M534.71 400.85V587.78" stroke="#ffc930" stroke-width="4" stroke-linecap="round" stroke-linejoin="round" opacity="1" fill="none"></path><path d="M525.58 467.16H543.91C550.77 467.16 556.25 472.71 556.25 479.5V521.92C556.25 528.79 550.7 534.26 543.91 534.26H525.58C518.71 534.26 513.24 528.71 513.24 521.92V479.5C513.16 472.63 518.71 467.16 525.58 467.16Z" fill="#ffffff" opacity="1" stroke-width="4" stroke="none"></path><path d="M542.01 495.93H527.4" stroke="#636363" stroke-width="4" stroke-linecap="round" stroke-linejoin="round" opacity="1" fill="none"></path><path d="M542.01 505.42H527.4" stroke="#636363" stroke-width="4" stroke-linecap="round" stroke-linejoin="round" opacity="1" fill="none"></path><path d="M630.36 400.85V587.78" stroke="#ffc930" stroke-width="4" stroke-linecap="round" stroke-linejoin="round" opacity="1" fill="none"></path><path d="M621.23 430.65H639.56C646.43 430.65 651.9 436.2 651.9 442.99V485.41C651.9 492.28 646.35 497.75 639.56 497.75H621.23C614.37 497.75 608.89 492.2 608.89 485.41V442.99C608.82 436.12 614.37 430.65 621.23 430.65Z" fill="#ffffff" opacity="1" stroke-width="4" stroke="none"></path><path d="M637.66 459.42H623.06" stroke="#636363" stroke-width="4" stroke-linecap="round" stroke-linejoin="round" opacity="1" fill="none"></path><path d="M637.66 468.91H623.06" stroke="#636363" stroke-width="4" stroke-linecap="round" stroke-linejoin="round" opacity="1" fill="none"></path><path d="M719.45 400.85V587.78" stroke="#ffc930" stroke-width="4" stroke-linecap="round" stroke-linejoin="round" opacity="1" fill="none"></path><path d="M710.32 499.29H728.65C735.51 499.29 740.99 504.83 740.99 511.63V554.05C740.99 560.91 735.44 566.39 728.65 566.39H710.32C703.45 566.39 697.98 560.84 697.98 554.05V511.63C697.9 504.76 703.45 499.29 710.32 499.29Z" fill="#ffffff" opacity="1" stroke-width="4" stroke="none"></path><path d="M726.75 528.05H712.14" stroke="#636363" stroke-width="4" stroke-linecap="round" stroke-linejoin="round" opacity="1" fill="none"></path><path d="M726.75 537.55H712.14" stroke="#636363" stroke-width="4" stroke-linecap="round" stroke-linejoin="round" opacity="1" fill="none"></path><path d="M422.69 478.84C444.27 478.84 461.76 461.35 461.76 439.77 461.76 418.2 444.27 400.71 422.69 400.71 401.12 400.71 383.63 418.2 383.63 439.77 383.63 461.35 401.12 478.84 422.69 478.84Z" fill="#ffc930" opacity="1" stroke-width="4" stroke="none"></path><path d="M422.69 401.58V419.84" stroke="#ffffff" stroke-width="4" stroke-linecap="round" stroke-linejoin="round" opacity="1" fill="none"></path><path d="M422.47 587.78C444.05 587.78 461.54 570.3 461.54 548.72 461.54 527.14 444.05 509.65 422.47 509.65 400.9 509.65 383.41 527.14 383.41 548.72 383.41 570.3 400.9 587.78 422.47 587.78Z" fill="#ffc930" opacity="1" stroke-width="4" stroke="none"></path><path d="M422.84 509.65V527.91" stroke="#ffffff" stroke-width="4" stroke-linecap="round" stroke-linejoin="round" opacity="1" fill="none"></path></g><g><path d="M722.73 301.59C733.31 301.59 741.88 293.01 741.88 282.43 741.88 271.85 733.31 263.27 722.73 263.27 712.15 263.27 703.57 271.85 703.57 282.43 703.57 293.01 712.15 301.59 722.73 301.59Z" fill="#ffffff" opacity="1" stroke-width="4" stroke="none"></path><path d="M647.37 263.94H669.02C673.25 263.94 676.68 267.37 676.68 271.61V293.25C676.68 297.49 673.25 300.91 669.02 300.91H647.37C643.14 300.91 639.71 297.49 639.71 293.25V271.61C639.71 267.37 643.14 263.94 647.37 263.94Z" fill="#f3ebe9" opacity="1" stroke-width="4" stroke="none"></path><path d="M608.18 280.41L584.19 264.41C583.11 263.67 581.63 264.01 580.89 265.09 580.62 265.49 580.49 265.89 580.49 266.36V298.36C580.49 299.64 581.57 300.71 582.84 300.71 583.31 300.71 583.78 300.58 584.12 300.31L608.12 284.31C609.19 283.57 609.46 282.16 608.79 281.08 608.65 280.82 608.45 280.61 608.18 280.41Z" fill="#ffffff" opacity="1" stroke-width="4" stroke="none"></path></g><g><path d="M409.52 707.74L268.87 707.42C264.46 707.42 260.88 710.93 260.88 715.34L260.56 854.65C260.56 859.06 264.14 862.57 268.48 862.64L409.14 862.96C413.55 862.96 417.12 859.44 417.12 855.04L417.44 715.72C417.44 711.31 413.87 707.74 409.52 707.74ZM288.99 849.16C288.99 851.84 286.81 854.02 284.13 854.02H276.08C273.4 854.02 271.23 851.84 271.23 849.16V843.6C271.23 840.92 273.4 838.75 276.08 838.75H284.13C286.81 838.75 288.99 840.92 288.99 843.6V849.16ZM289.05 818.5C289.05 821.18 286.88 823.35 284.2 823.35H276.15C273.46 823.35 271.29 821.18 271.29 818.5V812.94C271.29 810.26 273.46 808.09 276.15 808.09H284.2C286.88 808.09 289.05 810.26 289.05 812.94V818.5ZM289.11 787.84C289.11 790.52 286.94 792.69 284.26 792.69H276.21C273.53 792.69 271.36 790.52 271.36 787.84V782.28C271.36 779.6 273.53 777.43 276.21 777.43H284.26C286.94 777.43 289.11 779.6 289.11 782.28V787.84 787.84ZM289.18 757.18C289.18 759.86 287.01 762.03 284.32 762.03L276.21 762.1C273.53 762.1 271.36 759.92 271.36 757.24V751.68C271.36 749 273.53 746.83 276.21 746.83H284.26C286.94 746.83 289.11 749 289.11 751.68L289.18 757.18ZM289.24 726.52C289.24 729.2 287.07 731.37 284.39 731.37H276.34C273.66 731.37 271.48 729.2 271.48 726.52V720.96C271.48 718.28 273.66 716.1 276.34 716.1H284.39C287.07 716.1 289.24 718.28 289.24 721.02V726.52ZM406.52 849.42C406.52 852.1 404.35 854.27 401.6 854.27H393.55C390.87 854.27 388.7 852.1 388.7 849.42V843.86C388.7 841.18 390.87 839 393.55 839H401.6C404.29 839 406.46 841.18 406.46 843.92L406.52 849.42ZM406.58 818.75C406.58 821.44 404.41 823.61 401.73 823.61H393.68C391 823.61 388.83 821.44 388.83 818.75V813.2C388.83 810.51 391 808.34 393.68 808.34H401.73C404.41 808.34 406.58 810.51 406.58 813.2V818.75ZM406.65 788.09C406.65 790.78 404.48 792.95 401.79 792.95H393.75C391.06 792.95 388.89 790.78 388.89 788.09V782.54C388.89 779.85 391.06 777.68 393.75 777.68H401.79C404.48 777.68 406.65 779.85 406.65 782.54V788.09 788.09ZM406.71 757.43C406.71 760.12 404.54 762.29 401.86 762.29H393.75C391.06 762.29 388.89 760.12 388.89 757.43V751.88C388.89 749.19 391.06 747.02 393.75 747.02H401.79C404.48 747.02 406.65 749.19 406.65 751.88V757.43H406.71ZM406.78 726.77C406.78 729.45 404.6 731.63 401.92 731.63H393.87C391.19 731.63 389.02 729.45 389.02 726.77V721.21C389.02 718.53 391.19 716.36 393.94 716.36H401.99C404.67 716.36 406.84 718.53 406.84 721.21L406.78 726.77Z" fill="#61ccff" opacity="1" stroke-width="4" stroke="none"></path><path d="M304.7 716.17L373.94 716.3C376.69 716.3 378.86 718.53 378.86 721.21L378.61 848.65C378.61 851.4 376.37 853.57 373.69 853.57L304.44 853.44C301.7 853.44 299.53 851.2 299.53 848.52L299.78 721.09C299.72 718.34 301.95 716.17 304.7 716.17Z" fill="#ffffff" opacity="1" stroke-width="4" stroke="none"></path></g><g><path d="M1256.27 532.91C1256.44 515.19 1260.3 497.71 1267.63 481.57 1274.94 465.43 1285.56 451.01 1298.78 439.22 1300.39 459.67 1290.97 475.41 1300.39 489.66 1305.1 455.08 1322.45 455.08 1333.48 415.67 1364.96 459.79 1336.7 489.66 1353.93 524.36 1353.93 524.36 1364.96 510.23 1361.86 475.53 1377.6 486.56 1390.24 508.74 1390.24 533.03 1390.21 550.79 1383.13 567.81 1370.56 580.34 1357.98 592.88 1340.96 599.91 1323.2 599.9 1305.44 599.88 1288.42 592.82 1275.87 580.25 1263.33 567.69 1256.27 550.67 1256.27 532.91Z" fill="#61ccff" opacity="1" stroke-width="4" stroke="none"></path></g><g><path d="M1182.08 241.44L1105.59 277.42C1104.84 277.8 1104.34 278.55 1104.34 279.43L1101.83 378.36C1101.83 378.86 1101.58 379.36 1101.08 379.61L1081.14 390.9C1072.11 396.16 1068.98 407.82 1074.24 416.85 1076 419.99 1078.76 422.49 1081.89 424.12 1091.17 428.89 1102.71 425.38 1107.47 415.97 1108.85 413.22 1109.6 410.33 1109.6 407.2V380.11L1111.23 321.06 1173.42 292.97 1169.54 347.51C1169.54 348.14 1169.16 348.64 1168.66 348.89L1148.35 360.3C1139.32 365.57 1136.18 377.23 1141.45 386.26 1143.21 389.39 1145.96 391.9 1149.1 393.53 1158.38 398.29 1169.91 394.78 1174.68 385.38 1176.06 382.62 1176.81 379.74 1176.81 376.6V344.25L1183.46 242.32C1183.46 241.56 1182.7 241.06 1182.08 241.44ZM1111.36 313.91L1112.11 288.21C1112.11 287.96 1112.24 287.7 1112.49 287.58L1174.68 256.99C1175.3 256.73 1175.93 257.11 1175.93 257.86L1174.05 284.07 1111.36 313.91Z" fill="#ff9edd" opacity="1" stroke-width="4" stroke="none"></path></g><g><path d="M339.15 239.75L260.64 276.69C259.87 277.07 259.35 277.85 259.35 278.75L256.78 380.3C256.78 380.81 256.52 381.33 256 381.58L235.54 393.17C226.27 398.57 223.06 410.54 228.46 419.81 230.26 423.03 233.09 425.6 236.31 427.27 245.84 432.16 257.68 428.56 262.57 418.91 263.98 416.08 264.76 413.12 264.76 409.9V382.1L266.43 321.48 330.27 292.65 326.28 348.63C326.28 349.28 325.89 349.79 325.38 350.05L304.53 361.76C295.26 367.17 292.04 379.14 297.45 388.4 299.25 391.62 302.08 394.2 305.3 395.87 314.82 400.76 326.66 397.16 331.55 387.5 332.97 384.67 333.74 381.71 333.74 378.49V345.29L340.56 240.65C340.56 239.88 339.79 239.36 339.15 239.75ZM266.56 314.14L267.33 287.76C267.33 287.5 267.46 287.24 267.72 287.11L331.55 255.71C332.2 255.45 332.84 255.84 332.84 256.61L330.91 283.51 266.56 314.14Z" fill="#61ccff" opacity="1" stroke-width="4" stroke="none"></path></g><g><path d="M728.26 785.29L643.58 825.13C642.75 825.55 642.2 826.38 642.2 827.35L639.42 936.87C639.42 937.43 639.14 937.98 638.59 938.26L616.52 950.75C606.52 956.58 603.05 969.49 608.88 979.48 610.82 982.95 613.88 985.73 617.35 987.54 627.62 992.81 640.39 988.92 645.67 978.51 647.19 975.46 648.03 972.27 648.03 968.8V938.81L649.83 873.43 718.68 842.34 714.38 902.72C714.38 903.42 713.96 903.97 713.4 904.25L690.92 916.88C680.92 922.71 677.45 935.62 683.28 945.62 685.23 949.09 688.28 951.86 691.75 953.67 702.02 958.94 714.79 955.05 720.07 944.64 721.59 941.59 722.43 938.4 722.43 934.93V899.11L729.78 786.26C729.78 785.43 728.95 784.87 728.26 785.29ZM649.97 865.52L650.8 837.07C650.8 836.79 650.94 836.51 651.22 836.37L720.07 802.5C720.76 802.23 721.45 802.64 721.45 803.47L719.37 832.49 649.97 865.52Z" fill="#ffc930" opacity="1" stroke-width="4" stroke="none"></path></g><g><path d="M1069 922.16C1034.9 863.9 1000.8 841.88 983.03 797.93 961.92 745.35 977.86 638.99 915.84 588.44H915.74L854.54 605.08C854.54 605.08 854.44 605.08 854.44 605.19 854.13 607.83 843.37 696.13 884.38 794.38 892.5 813.76 902.55 833.56 915.23 853.15 948.73 905.21 984.56 957.89 1001.61 987.73 1006.79 996.87 1010.24 1003.87 1011.35 1008.03 1011.35 1008.03 1011.35 1008.03 1011.35 1008.13L1041.19 1027.21H1041.29L1095.9 971.39V971.29C1094.68 968.55 1091.84 963.07 1088.39 956.47 1082.5 945.1 1074.48 930.59 1069 922.16Z" fill="#f49e73" opacity="1" stroke-width="4" stroke="none"></path><path d="M983.14 797.93C962.02 745.35 977.96 638.99 915.94 588.44H915.84L854.64 605.08C854.64 605.08 854.54 605.08 854.54 605.19 854.23 607.83 843.48 696.13 884.38 794.28 884.38 794.28 884.38 794.38 884.48 794.38L992.98 818.43C993.08 818.43 993.18 818.33 993.08 818.33 989.43 811.94 986.08 805.24 983.14 797.93Z" fill="#171717" opacity="0.2" stroke-width="4" stroke="none"></path><path d="M902.65 374.48C903.66 353.67 899.3 340.89 888.84 325.26 878.39 309.62 861.54 300.08 838.1 312.47 821.45 321.2 815.66 343.12 814.14 362.1 814.14 362.1 814.14 362.2 814.04 362.2 813.33 362.4 806.02 365.04 805.82 368.39 805.51 371.84 811 376.31 811.5 376.82V376.92C806.53 389.81 806.73 407.37 820.64 413.46 827.44 416.5 838.4 416.91 845.91 414.68 846.01 414.68 846.01 414.68 846.01 414.78L845.81 419.55C845.81 419.65 845.81 419.65 845.91 419.65L876.46 423.4H887.83C887.83 423.4 887.93 423.4 887.93 423.3 888.54 422.08 902.95 421.07 903.05 419.65 903.26 416.4 903.46 412.54 903.76 408.38 904.48 396.91 902.24 383.21 902.65 374.48Z" fill="#f49e73" opacity="1" stroke-width="4" stroke="none"></path><path d="M905.9 373.87C906.91 353.07 908.84 334.69 898.39 319.17 887.93 303.53 858.5 294.3 835.15 306.68H835.05C830.69 302.72 825.31 300.19 819.42 299.37 810.69 298.36 799.63 304.04 800.74 316.02 802.27 334.8 833.83 359.87 852.1 364.94H852.2C853.22 364.13 874.03 347.69 886.21 359.87 896.96 373.37 875.24 392.35 874.03 393.36V393.46C877.17 400.57 894.83 408.48 903.87 408.28 903.97 408.28 903.97 408.28 903.97 408.18 904.37 402.39 905.69 379.05 905.9 373.87Z" fill="#a66241" opacity="1" stroke-width="4" stroke="none"></path><path d="M900.11 241.73C921.32 214.63 950.66 202.25 965.68 214.02 980.7 225.8 975.83 257.26 954.62 284.36 933.4 311.46 904.68 322.32 889.66 310.55 874.63 298.77 879 268.73 900.11 241.73Z" fill="#a66241" opacity="1" stroke-width="4" stroke="none"></path><path d="M1052.05 423.3C1052.36 422.59 1055.5 417.52 1052.05 412.85 1048.81 408.59 1037.44 417.92 1033.99 420.87 1033.88 420.97 1033.78 420.87 1033.88 420.76 1037.84 415.89 1054.39 394.88 1047.89 392.24 1040.89 389.2 1013.28 422.19 1010.74 425.23 1010.64 425.33 1010.54 425.23 1010.54 425.13 1010.54 423 1010.64 409.9 1007.8 407.98 1004.65 405.84 995.92 420.26 986.59 438.93 981.51 449.08 974.71 465.93 969.74 478.62V478.72L988.31 510.79C988.31 510.79 988.41 510.89 988.41 510.79L1018.25 501.15C1018.25 501.15 1018.36 501.15 1018.36 501.05 1020.08 488.67 1021.4 479.02 1022.82 477.3 1028 471.01 1026.98 473.14 1041.5 459.64 1055.3 446.85 1051.34 439.64 1050.84 438.93V438.83C1057.84 431.93 1052.56 424.01 1052.05 423.3Z" fill="#f49e73" opacity="1" stroke-width="4" stroke="none"></path><path d="M861.95 825.23C870.27 769.11 940.81 686.89 912.9 612.09L912.8 611.99 831.5 612.49H831.4C830.28 614.52 792.32 682.93 775.78 786.77 774.76 803.41 774.56 820.77 775.67 838.63 780.14 910.59 785.11 957.69 787.96 998.59 788.16 1001.94 788.36 1005.29 788.56 1008.54L807.54 1055.64C807.54 1055.75 807.65 1055.75 807.65 1055.64L878.49 1013.61V1013.51C879.51 875.78 855.05 872.02 861.95 825.23Z" fill="#f49e73" opacity="1" stroke-width="4" stroke="none"></path><path d="M780.14 784.14L865.5 809.11C865.6 809.11 865.6 809.11 865.6 809 867.63 801.9 870.37 794.49 873.42 786.67 875.35 781.8 877.48 776.63 879.71 771.55 879.71 771.45 879.71 771.45 879.61 771.45L780.14 783.93C780.04 784.04 780.04 784.14 780.14 784.14Z" fill="#171717" opacity="0.2" stroke-width="4" stroke="none"></path><path d="M647.99 581.13C624.14 592.6 589.83 616.45 585.67 624.78 581.92 632.39 588.41 633.91 589.63 634.11 589.73 634.11 589.73 634.21 589.63 634.32 581.92 642.23 593.99 645.38 594.91 645.58 594.91 645.58 595.01 645.58 595.01 645.68 597.95 660.91 626.27 641.83 630.74 638.78 630.84 638.68 630.94 638.88 630.84 638.88 627.89 642.54 612.26 662.23 619.88 663.14 628.1 664.16 646.37 640.91 646.87 640.3 647.08 640.2 649.72 639.09 661.49 636.14 669.3 634.01 676.31 630.15 682.3 624.67 682.3 624.67 682.3 624.67 682.4 624.67 683.21 624.67 695.29 624.78 710.21 624.17 710.31 624.17 710.31 624.17 710.31 624.07L710.92 587.63C710.92 587.63 710.92 587.63 710.92 587.53L696.2 564.69C696.2 564.69 696.1 564.59 696.1 564.69 677.73 570.17 658.14 576.26 647.99 581.13Z" fill="#f49e73" opacity="1" stroke-width="4" stroke="none"></path><path d="M915.84 588.44L866.21 601.94H827.74 827.64C826.42 604.07 782.58 680.7 775.88 786.77 775.88 786.87 775.88 786.87 775.98 786.87L979.28 786.77C979.38 786.77 979.38 786.66 979.38 786.66 963.95 731.35 973.8 635.43 915.84 588.44 915.94 588.44 915.94 588.44 915.84 588.44Z" fill="#ffc930" opacity="1" stroke-width="4" stroke="none"></path><path d="M783.29 573.12C746.14 588.25 720.16 576.47 714.17 559.42L714.07 559.32C708.28 561.05 702.6 562.67 696.1 564.5 696 564.5 696 564.6 696 564.6L710.21 623.97 710.31 624.08C728.17 623.16 750.3 621.03 766.03 615.85L766.13 615.75C763.29 600.83 781.26 576.17 783.39 573.33 783.49 573.22 783.39 573.12 783.29 573.12Z" fill="#61ccff" opacity="1" stroke-width="4" stroke="none"></path><path d="M966.29 565.5C985.17 552.2 999.98 521.15 1000.29 492.22 1000.29 492.22 1000.29 492.12 1000.19 492.12L969.84 478.62C969.74 478.62 969.74 478.62 969.74 478.72 968.93 480.95 968.11 482.98 967.3 484.91 964.87 491.2 963.24 495.67 962.84 496.79 962.84 496.89 962.63 496.89 962.63 496.79 961.92 494.86 957.36 482.37 951.16 469.28L951.06 469.18C931.68 476.18 918.58 485.72 916.55 487.25 916.45 487.35 916.35 487.25 916.45 487.14 922.24 473.54 924.17 458.62 925.89 436.6 925.89 436.6 925.89 436.5 925.79 436.5 918.48 432.34 910.77 429.19 902.65 427.46L902.55 427.36 903.16 419.75C903.16 419.65 903.16 419.65 903.05 419.65H846.01C845.91 419.65 845.91 419.65 845.91 419.75L845.61 426.25C845.61 426.35 845.61 426.35 845.51 426.35 825.41 426.75 806.53 433.25 791.41 453.35 786.53 459.84 780.45 470.9 774.15 483.59V483.69C796.28 498.92 836.37 497.09 882.75 462.48 882.86 462.38 882.96 462.48 882.86 462.58 879 468.98 835.66 544.19 909.75 549.26 909.85 549.26 909.85 549.36 909.75 549.46 905.9 551.7 864.99 575.96 859.51 601.74 859.51 601.84 859.51 601.84 859.61 601.84H929.44C929.55 601.84 929.55 601.84 929.55 601.74L933.5 568.95C933.5 568.85 933.61 568.85 933.71 568.95 935.53 572 953.8 601.13 984.35 588.24 994.61 583.87 1001.81 571.69 1006.89 556.77 1006.89 556.67 1006.89 556.67 1006.79 556.67 989.83 555.76 970.85 563.57 966.29 565.6 966.29 565.7 966.19 565.6 966.29 565.5Z" fill="#61ccff" opacity="1" stroke-width="4" stroke="none"></path><path d="M967.1 485.33C965.17 490.3 962.94 496.49 962.74 497 962.74 497 962.74 497 962.74 497.1L969.23 512.22C969.23 512.33 969.43 512.33 969.43 512.22L967.3 485.43C967.3 485.23 967.2 485.23 967.1 485.33Z" fill="#125d80" opacity="0.2" stroke-width="4" stroke="none"></path><path d="M933.71 568.76C934.01 569.37 939.7 578.91 949.54 585.4 949.64 585.51 949.74 585.4 949.74 585.3 948.42 582.87 940.81 567.74 937.56 537.8 937.56 537.7 937.36 537.7 937.36 537.8L933.71 568.76Z" fill="#125d80" opacity="0.2" stroke-width="4" stroke="none"></path><path d="M911.99 548.86C837.79 543.68 881.33 466.44 885.19 459.94 885.29 459.84 885.09 459.74 885.09 459.84 838.7 494.55 796.48 498.92 774.36 483.8H774.25C759.94 512.92 745.33 549.57 744.82 551.09 744.82 551.09 744.82 551.09 744.72 551.19 743.8 551.39 731.02 554.64 714.37 559.41 714.27 559.41 714.27 559.51 714.27 559.51 720.16 576.56 741.57 592.4 778.62 577.27 778.72 577.27 778.82 577.38 778.72 577.38 776.99 580.01 763.39 601.03 766.24 615.74 766.24 615.84 766.34 615.84 766.34 615.84 769.18 614.93 772.12 613.71 774.66 612.29 799.32 599.4 815.56 563.06 817.09 559.61 817.09 559.51 817.29 559.51 817.29 559.61L822.57 580.93 827.74 601.84 827.84 601.94H863.17C863.17 601.94 863.27 601.94 863.27 601.84 868.85 576.06 908.43 551.19 912.09 548.96 912.09 548.96 912.09 548.86 911.99 548.86Z" fill="#b0e5ff" opacity="1" stroke-width="4" stroke="none"></path><path d="M817.09 559.32L822.26 580.43C822.26 580.53 822.47 580.53 822.47 580.43L829.67 533.23C829.67 533.13 829.57 533.03 829.47 533.13L817.09 559.32Z" fill="#1e4d64" opacity="0.2" stroke-width="4" stroke="none"></path><path d="M951.06 469.19C951.16 469.19 951.16 469.09 951.16 469.09 948.12 462.69 944.67 456.4 940.91 450.31 937.06 444.42 931.68 439.96 925.99 436.61 925.89 436.61 925.89 436.61 925.89 436.71 924.06 458.74 915.34 483.4 909.55 497.2 909.55 497.3 909.65 497.41 909.75 497.3 912.39 494.46 931.47 476.19 951.06 469.19Z" fill="#b0e5ff" opacity="1" stroke-width="4" stroke="none"></path><path d="M1000.29 492.32C999.88 521.35 981.31 554.44 962.43 567.84 962.33 567.94 962.43 568.04 962.53 568.04 967.61 565.7 989.83 556.06 1006.89 557.08 1006.89 557.08 1006.99 557.08 1006.99 556.97 1013.08 538.91 1016.22 517.49 1018.46 501.25 1018.46 501.25 1018.46 501.15 1018.36 501.15L1000.49 492.32C1000.39 492.12 1000.29 492.22 1000.29 492.32Z" fill="#b0e5ff" opacity="1" stroke-width="4" stroke="none"></path><path d="M589.63 634.11L620.08 610.26" stroke="#171717" stroke-width="4" stroke-linecap="round" stroke-linejoin="round" opacity="1" fill="none"></path><path d="M595.01 645.69L628.4 623.77" stroke="#171717" stroke-width="4" stroke-linecap="round" stroke-linejoin="round" opacity="1" fill="none"></path><path d="M1004.86 434.37L1010.54 425.03" stroke="#171717" stroke-width="4" stroke-linecap="round" stroke-linejoin="round" opacity="1" fill="none"></path><path d="M1052.05 423.31C1042.72 431.64 1034.8 437.22 1034.8 437.22" stroke="#171717" stroke-width="4" stroke-linecap="round" stroke-linejoin="round" opacity="1" fill="none"></path><path d="M1050.84 438.93C1045.66 444.11 1039.06 449.49 1039.06 449.49" stroke="#171717" stroke-width="4" stroke-linecap="round" stroke-linejoin="round" opacity="1" fill="none"></path><path d="M893.62 682.12C885.7 688.62 873.72 688.62 864.59 682.12 858.29 677.66 854.34 670.75 853.52 663.24L851.59 640.51C851.59 640.41 851.59 640.41 851.7 640.41H899.4C899.5 640.41 899.5 640.41 899.5 640.51L901.43 663.24C901.94 670.35 899.1 677.55 893.62 682.12Z" fill="#fce295" opacity="1" stroke-width="4" stroke="none"></path><path d="M944.06 682.13C949.74 686.39 956.95 688.02 963.85 686.5 963.95 686.5 963.95 686.39 963.95 686.39 961.11 670.76 957.46 654.93 951.87 640.42L951.77 640.31H931.17C931.07 640.31 931.07 640.42 931.07 640.42L933 663.15C933.81 670.87 937.77 677.77 944.06 682.13Z" fill="#fce295" opacity="1" stroke-width="4" stroke="none"></path><path d="M846.42 414.69C850.48 413.26 854.23 411.34 856.77 409.2" stroke="#171717" stroke-width="4" stroke-linecap="round" stroke-linejoin="round" opacity="1" fill="none"></path><path d="M864.89 377.73L872.1 370.42" stroke="#171717" stroke-width="4" stroke-linecap="round" stroke-linejoin="round" opacity="1" fill="none"></path><path d="M827.54 368C829.28 368 830.69 366.59 830.69 364.85 830.69 363.1 829.28 361.7 827.54 361.7 825.8 361.7 824.39 363.1 824.39 364.85 824.39 366.59 825.8 368 827.54 368Z" fill="#17151c" opacity="1" stroke-width="4" stroke="none"></path><path d="M821.55 385.45C824.39 385.56 826.93 384.44 828.86 382.31" stroke="#171717" stroke-width="4" stroke-linecap="round" stroke-linejoin="round" opacity="1" fill="none"></path><path d="M962.74 497L969.33 512.12" stroke="#0e232d" stroke-width="4" stroke-linecap="round" stroke-linejoin="round" opacity="1" fill="none"></path><path d="M817.19 559.32L829.57 533.23" stroke="#0f232c" stroke-width="4" stroke-linecap="round" stroke-linejoin="round" opacity="1" fill="none"></path><path d="M933.71 568.75L937.36 537.89" stroke="#0e232d" stroke-width="4" stroke-linecap="round" stroke-linejoin="round" opacity="1" fill="none"></path><path d="M898.59 319.48C894.73 313.59 888.24 308.62 880.52 305.37" stroke="#171717" stroke-width="4" stroke-linecap="round" stroke-linejoin="round" opacity="1" fill="none"></path><path d="M750.5 1059.5C760.15 1043.57 787.45 1039.4 787.65 1007.12 787.65 1005.39 787.96 999.91 788.06 998.79 788.06 998.69 788.06 998.69 788.16 998.69L808.56 998.9C816.17 998.9 821.86 1005.7 820.64 1013.11L817.29 1033.71C817.29 1033.81 817.39 1033.91 817.49 1033.81 819.93 1031.58 841.85 1015.34 878.29 1013.72 878.49 1013.72 878.59 1013.82 878.59 1014.02 878.49 1040.42 878.59 1048.94 877.48 1060.01 877.48 1060.01 877.48 1060.11 877.38 1060.11 877.07 1060.11 875.55 1060.41 875.55 1060.41L750.6 1059.81 750.5 1059.5Z" fill="#61ccff" opacity="1" stroke-width="4" stroke="none"></path><path d="M750.6 1059.5L877.68 1058.49C877.78 1058.49 877.78 1058.59 877.78 1058.59 877.27 1067.92 877.07 1069.24 876.36 1077.36 876.36 1077.47 876.36 1077.47 876.26 1077.47H746.14C746.04 1077.47 746.04 1077.47 746.04 1077.36 746.04 1072.49 746.75 1068.53 747.97 1064.98 748.57 1062.95 749.49 1061.23 750.6 1059.5 750.5 1059.5 750.5 1059.5 750.6 1059.5Z" fill="#61ccff" opacity="1" stroke-width="4" stroke="none"></path><path d="M784.71 1024.28L799.02 1030.27" stroke="#d6f0fc" stroke-width="4" stroke-linecap="round" stroke-linejoin="round" opacity="1" fill="none"></path><path d="M778.01 1035.34L790.19 1044.48" stroke="#d6f0fc" stroke-width="4" stroke-linecap="round" stroke-linejoin="round" opacity="1" fill="none"></path><path d="M817.29 1034.01L812.32 1058.49" stroke="#d6f0fc" stroke-width="4" stroke-linecap="round" stroke-linejoin="round" opacity="1" fill="none"></path><path d="M996.64 1057.98C998.26 1039.4 1019.57 1024.27 1005.47 995.24 1004.65 993.62 1004.15 991.89 1003.13 990.17 1002.73 989.46 1002.22 988.44 1001.81 987.73V987.63L1020.69 978.5C1027.49 975.15 1035.61 978.7 1037.84 985.9L1044.03 1006.1C1044.44 1004.88 1055.3 974.84 1088.49 956.57 1088.59 956.57 1088.59 956.57 1088.59 956.57 1092.45 962.66 1107.27 989.86 1112.14 1001.54L1111.84 1001.13 996.94 1057.98H996.64Z" fill="#61ccff" stroke-linejoin="round" opacity="1" stroke-width="4" stroke="none"></path><path d="M996.74 1057.98L1111.73 1000.43C1111.84 1000.43 1111.84 1000.43 1111.84 1000.43 1115.39 1008.14 1117.01 1012.1 1119.55 1017.58V1017.68L1000.7 1076.04C1000.59 1076.04 1000.59 1076.04 1000.59 1076.04 998.46 1071.68 997.35 1067.82 996.84 1064.07 996.53 1061.94 996.53 1059.91 996.74 1057.98 996.64 1057.98 996.64 1057.98 996.74 1057.98Z" fill="#61ccff" opacity="1" stroke-width="4" stroke="none"></path><path d="M1009.32 1024.79L1022.62 1027.33" stroke="#d6f0fc" stroke-width="4" stroke-linecap="round" stroke-linejoin="round" opacity="1" fill="none"></path><path d="M1044.03 1006.31L1050.33 1030.46" stroke="#d6f0fc" stroke-width="4" stroke-linecap="round" stroke-linejoin="round" opacity="1" fill="none"></path><path d="M1010.24 1013.52L1023.23 1011.8" stroke="#d6f0fc" stroke-width="4" stroke-linecap="round" stroke-linejoin="round" opacity="1" fill="none"></path><path d="M929.75 601.95H827.64" stroke="#101f26" stroke-width="4" stroke-linecap="round" stroke-linejoin="round" opacity="1" fill="none"></path></g></svg>