<svg xmlns="http://www.w3.org/2000/svg" height="1200" width="1600" version="1.1" xmlns:xlink="http://www.w3.org/1999/xlink" xmlns:svgjs="http://svgjs.com/svgjs"><rect fill="#f3ebe9" width="1600" height="1200"></rect><g><path d="M576.36 291.83H1168.54C1192.26 291.83 1211.49 311.06 1211.49 334.79V850.63C1211.49 874.35 1192.26 893.58 1168.54 893.58H576.36C552.63 893.58 533.4 874.35 533.4 850.63V334.79C533.4 311.06 552.63 291.83 576.36 291.83Z" fill="#231f20" opacity="1" stroke-width="4" stroke="none"></path><path d="M1212.64 745.3H533.4" stroke="#613945" stroke-width="4" stroke-linecap="round" stroke-linejoin="round" opacity="1" fill="none"></path><path d="M576.17 291.83H1168.35C1192.07 291.83 1211.3 311.06 1211.3 334.79V379.85H533.21V334.79C533.21 311.06 552.44 291.83 576.17 291.83Z" fill="#3c2c5b" opacity="1" stroke-width="4" stroke="none"></path><path d="M586.98 353.06C595.43 353.06 602.28 346.21 602.28 337.76 602.28 329.3 595.43 322.45 586.98 322.45 578.52 322.45 571.67 329.3 571.67 337.76 571.67 346.21 578.52 353.06 586.98 353.06Z" fill="#231f20" opacity="1" stroke-width="4" stroke="none"></path><path d="M636.72 353.06C645.18 353.06 652.03 346.21 652.03 337.76 652.03 329.3 645.18 322.45 636.72 322.45 628.27 322.45 621.42 329.3 621.42 337.76 621.42 346.21 628.27 353.06 636.72 353.06Z" fill="#231f20" opacity="1" stroke-width="4" stroke="none"></path><path d="M686.47 353.06C694.93 353.06 701.78 346.21 701.78 337.76 701.78 329.3 694.93 322.45 686.47 322.45 678.01 322.45 671.16 329.3 671.16 337.76 671.16 346.21 678.01 353.06 686.47 353.06Z" fill="#231f20" opacity="1" stroke-width="4" stroke="none"></path></g><g><path d="M853.94 443.08V687.99" stroke="#3c2c5b" stroke-width="4" stroke-linecap="round" stroke-linejoin="round" opacity="1" fill="none"></path><path d="M841.98 529.95H865.99C874.98 529.95 882.16 537.22 882.16 546.12V601.7C882.16 610.69 874.89 617.87 865.99 617.87H841.98C832.99 617.87 825.81 610.6 825.81 601.7V546.12C825.72 537.12 832.99 529.95 841.98 529.95Z" fill="#61ccff" opacity="1" stroke-width="4" stroke="none"></path><path d="M863.5 567.64H844.37" stroke="#141515" stroke-width="4" stroke-linecap="round" stroke-linejoin="round" opacity="1" fill="none"></path><path d="M863.5 580.08H844.37" stroke="#141515" stroke-width="4" stroke-linecap="round" stroke-linejoin="round" opacity="1" fill="none"></path><path d="M979.26 443.08V687.99" stroke="#3c2c5b" stroke-width="4" stroke-linecap="round" stroke-linejoin="round" opacity="1" fill="none"></path><path d="M967.3 482.12H991.31C1000.31 482.12 1007.48 489.39 1007.48 498.28V553.87C1007.48 562.86 1000.21 570.03 991.31 570.03H967.3C958.31 570.03 951.13 562.76 951.13 553.87V498.28C951.04 489.29 958.31 482.12 967.3 482.12Z" fill="#61ccff" opacity="1" stroke-width="4" stroke="none"></path><path d="M988.83 519.81H969.69" stroke="#141515" stroke-width="4" stroke-linecap="round" stroke-linejoin="round" opacity="1" fill="none"></path><path d="M988.83 532.25H969.69" stroke="#141515" stroke-width="4" stroke-linecap="round" stroke-linejoin="round" opacity="1" fill="none"></path><path d="M1095.97 443.08V687.99" stroke="#3c2c5b" stroke-width="4" stroke-linecap="round" stroke-linejoin="round" opacity="1" fill="none"></path><path d="M1084.02 572.04H1108.03C1117.02 572.04 1124.2 579.31 1124.2 588.21V643.79C1124.2 652.79 1116.93 659.96 1108.03 659.96H1084.02C1075.02 659.96 1067.85 652.69 1067.85 643.79V588.21C1067.75 579.22 1075.02 572.04 1084.02 572.04Z" fill="#61ccff" opacity="1" stroke-width="4" stroke="none"></path><path d="M1105.54 609.74H1086.41" stroke="#141515" stroke-width="4" stroke-linecap="round" stroke-linejoin="round" opacity="1" fill="none"></path><path d="M1105.54 622.17H1086.41" stroke="#141515" stroke-width="4" stroke-linecap="round" stroke-linejoin="round" opacity="1" fill="none"></path><path d="M707.18 545.26C735.45 545.26 758.37 522.34 758.37 494.07 758.37 465.81 735.45 442.89 707.18 442.89 678.91 442.89 656 465.81 656 494.07 656 522.34 678.91 545.26 707.18 545.26Z" fill="#3c2c5b" opacity="1" stroke-width="4" stroke="none"></path><path d="M707.18 444.04V467.96" stroke="#9b77df" stroke-width="4" stroke-linecap="round" stroke-linejoin="round" opacity="1" fill="none"></path><path d="M706.9 687.99C735.17 687.99 758.08 665.08 758.08 636.81 758.08 608.54 735.17 585.63 706.9 585.63 678.63 585.63 655.72 608.54 655.72 636.81 655.72 665.08 678.63 687.99 706.9 687.99Z" fill="#3c2c5b" opacity="1" stroke-width="4" stroke="none"></path><path d="M707.38 585.63V609.54" stroke="#9b77df" stroke-width="4" stroke-linecap="round" stroke-linejoin="round" opacity="1" fill="none"></path></g><g><path d="M1123.96 789.76V837.63" stroke="#ffc930" stroke-width="4" stroke-linecap="round" stroke-linejoin="round" opacity="1" fill="none"></path><path d="M1147.89 813.7H1100.03" stroke="#ffc930" stroke-width="4" stroke-linecap="round" stroke-linejoin="round" opacity="1" fill="none"></path><path d="M947.15 841.54C962.53 841.54 974.99 829.07 974.99 813.7 974.99 798.32 962.53 785.86 947.15 785.86 931.77 785.86 919.31 798.32 919.31 813.7 919.31 829.07 931.77 841.54 947.15 841.54Z" fill="#ffffff" opacity="1" stroke-width="4" stroke="none"></path><path d="M837.64 786.83H869.1C875.25 786.83 880.24 791.82 880.24 797.97V829.43C880.24 835.58 875.25 840.56 869.1 840.56H837.64C831.49 840.56 826.51 835.58 826.51 829.43V797.97C826.51 791.82 831.49 786.83 837.64 786.83Z" fill="#61ccff" opacity="1" stroke-width="4" stroke="none"></path><path d="M780.69 810.77L745.82 787.52C744.26 786.44 742.11 786.93 741.03 788.49 740.64 789.08 740.45 789.67 740.45 790.35V836.85C740.45 838.71 742.01 840.27 743.87 840.27 744.55 840.27 745.23 840.07 745.72 839.68L780.6 816.43C782.16 815.36 782.55 813.31 781.57 811.74 781.38 811.35 781.08 811.06 780.69 810.77Z" fill="#ffffff" opacity="1" stroke-width="4" stroke="none"></path></g><g><path d="M1301.9 654.32L1179.04 608.83 1221.13 732.93 1237.07 696.57 1265.7 725.81 1293.86 698.42 1265.39 669.18 1301.9 654.32Z" fill="#61ccff" opacity="1" stroke-width="4" stroke="none"></path></g><g><path d="M371.92 382.92L336.54 292.23 407.99 264.29 436.73 337.92" stroke="#3c2c5b" stroke-width="4" stroke-linecap="round" stroke-linejoin="round" opacity="1" fill="none"></path><path d="M369.35 405.14C377.43 394.21 376.78 380.02 367.88 373.44 358.98 366.85 345.22 370.38 337.13 381.3 329.04 392.24 329.7 406.44 338.59 413.01 347.49 419.59 361.26 416.08 369.35 405.14Z" fill="#3c2c5b" opacity="1" stroke-width="4" stroke="none"></path><path d="M434.65 361.21C442.73 350.28 442.08 336.09 433.18 329.5 424.28 322.92 410.51 326.45 402.43 337.38 394.34 348.3 394.99 362.5 403.89 369.09 412.79 375.67 426.56 372.14 434.65 361.21Z" fill="#3c2c5b" opacity="1" stroke-width="4" stroke="none"></path></g><g><path d="M984.02 177.03L987.84 139.72" stroke="#231f20" stroke-width="4" stroke-linecap="round" stroke-linejoin="round" opacity="1" fill="none"></path><path d="M952.45 216.26L928.53 164.6" stroke="#231f20" stroke-width="4" stroke-linecap="round" stroke-linejoin="round" opacity="1" fill="none"></path><path d="M918.68 230.03L893.8 213.77" stroke="#231f20" stroke-width="4" stroke-linecap="round" stroke-linejoin="round" opacity="1" fill="none"></path></g><g><path d="M353.94 523.63L277.06 520.78 342.67 562.45 239 611.88 337.32 627.74 315.22 699.7 369.69 669.41" stroke="#231f20" stroke-width="4" stroke-linecap="round" stroke-linejoin="round" opacity="1" fill="none"></path></g><g><path d="M1169.7 944.9L1172.64 1024.8 1222.97 952.59 1313.74 999.38 1262.55 915.46 1342.69 884.06 1254 857.55 1300.18 815.28" stroke="#231f20" stroke-width="4" stroke-linecap="round" stroke-linejoin="round" opacity="1" fill="none"></path></g><g><path d="M586.63 232.24C597.21 232.24 605.79 223.66 605.79 213.08 605.79 202.5 597.21 193.92 586.63 193.92 576.05 193.92 567.47 202.5 567.47 213.08 567.47 223.66 576.05 232.24 586.63 232.24Z" fill="#61ccff" opacity="1" stroke-width="4" stroke="none"></path></g><g><path d="M946.88 998.79C957.65 998.79 966.39 990.05 966.39 979.27 966.39 968.5 957.65 959.76 946.88 959.76 936.1 959.76 927.36 968.5 927.36 979.27 927.36 990.05 936.1 998.79 946.88 998.79Z" fill="#ffffff" opacity="1" stroke-width="4" stroke="none"></path></g><g><path d="M285.07 822.79C297.22 822.79 307.08 812.93 307.08 800.78 307.08 788.63 297.22 778.77 285.07 778.77 272.92 778.77 263.06 788.63 263.06 800.78 263.06 812.93 272.92 822.79 285.07 822.79Z" fill="#ffffff" opacity="1" stroke-width="4" stroke="none"></path></g><g><path d="M1319.6 526.19C1333.3 526.19 1344.41 515.08 1344.41 501.38 1344.41 487.67 1333.3 476.56 1319.6 476.56 1305.89 476.56 1294.78 487.67 1294.78 501.38 1294.78 515.08 1305.89 526.19 1319.6 526.19Z" fill="#ffffff" opacity="1" stroke-width="4" stroke="none"></path></g><g><path d="M307.49 979.97L356.74 1003.2C362.41 1003.68 369.8 1005.03 378.05 1007.23L390.63 1009.06C390.73 1009.06 390.73 1009.06 390.73 1008.96L389.86 959.33 389.09 915.55C389.09 915.55 389.09 915.46 389 915.46L375.27 911.33C365 909.7 353.09 908.45 342.15 907.49 342.15 907.49 342.15 907.49 342.05 907.49L337.44 910.18 307.3 979.87C307.4 979.97 307.4 979.97 307.49 979.97Z" fill="#f49e73" opacity="1" stroke-width="4" stroke="none"></path><path d="M545.67 815.33C543.18 813.98 392.17 731.9 402.63 786.81 407.81 813.98 426.73 851.9 444.78 883.68 462.34 914.69 479.05 939.74 480.97 942.62 481.06 942.72 480.97 942.82 480.87 942.72 447.75 927.36 418.95 918.24 375.56 911.42 375.46 911.42 375.46 911.42 375.46 911.52L378.15 1007.23C378.15 1007.23 378.15 1007.33 378.25 1007.33 400.42 1013.28 430.28 1024.42 459.75 1032.39 489.7 1042.18 512.55 1044.1 529.83 1040.45 619.88 1020.96 557.39 846.62 545.67 815.33Z" fill="#ffc930" opacity="1" stroke-width="4" stroke="none"></path><path d="M555.08 842.21C555.08 842.21 554.99 842.11 555.08 842.21 552.59 840.48 392.17 732 402.63 786.81 407.81 813.89 426.73 851.9 444.68 883.58 444.68 883.58 444.78 883.68 444.78 883.58 446.98 883.01 508.62 868.61 529.74 921.02 552.11 976.61 531.08 1036.71 529.83 1040.16 529.83 1040.26 529.83 1040.26 529.93 1040.26 554.41 1035.27 568.91 1016.64 574.57 991.87 582.92 917.09 558.54 854.97 555.08 842.21Z" fill="#080602" opacity="0.2" stroke-width="4" stroke="none"></path><path d="M460.9 1032.68C465.51 1021.35 472.14 1010.5 481.16 1002.15 512.17 973.44 551.72 986.21 574.19 997.54" stroke="#ffde7f" stroke-width="4" stroke-linecap="round" stroke-linejoin="round" opacity="1" fill="none"></path><path d="M560.07 861.41C537.32 878.88 512.17 888.86 512.17 888.86 512.17 888.86 537.8 900 574.19 921.02" stroke="#ffde7f" stroke-width="4" stroke-linecap="round" stroke-linejoin="round" opacity="1" fill="none"></path><path d="M486.92 846.14C483.18 870.81 473 889.82 455.62 900.48" stroke="#ffde7f" stroke-width="4" stroke-linecap="round" stroke-linejoin="round" opacity="1" fill="none"></path><path d="M574.95 559.57C574.95 559.48 575.05 559.48 575.05 559.48 586.57 566.1 597.13 568.02 607.69 563.22 618.25 558.42 620.17 542.97 621.13 531.54 621.13 531.54 621.13 531.45 621.23 531.45 631.88 526.36 631.4 523.48 622.86 515.8V515.7C624.2 502.07 625.45 484.79 622.19 475.67 617.39 462.23 598.09 450.52 566.31 455.32 518.6 461.17 530.03 513.59 510.63 549.97 510.63 550.07 510.63 550.07 510.73 550.07 513.42 550.93 570.15 568.6 572.75 569.37 572.84 569.37 572.84 569.37 572.84 569.27L574.95 559.57Z" fill="#f49e73" opacity="1" stroke-width="4" stroke="none"></path><path d="M574.95 559.57L572.75 569.37C572.75 569.46 572.65 569.46 572.55 569.37 571.59 567.45 565.35 554.68 563.34 550.74 563.24 550.65 563.43 550.55 563.53 550.65 569.39 556.12 574.38 559.19 574.95 559.57 574.95 559.48 574.95 559.48 574.95 559.57Z" fill="#171717" opacity="0.2" stroke-width="4" stroke="none"></path><path d="M375.46 911.42L378.15 1007.23" stroke="#080602" stroke-width="4" stroke-linecap="round" stroke-linejoin="round" opacity="1" fill="none"></path><path d="M294.92 1037.19C294.53 1033.64 285.99 968.83 285.89 968.35 285.89 967.87 290.31 908.35 290.6 905.95 290.6 905.95 290.6 905.86 290.69 905.86 308.26 905.47 324.87 905.95 342.15 907.39 342.24 907.39 342.24 907.49 342.24 907.49 341.76 945.7 321.6 970.27 319.49 972.77 319.4 972.87 319.49 972.96 319.59 972.96L341 968.83C348.77 967.3 355.97 973.06 356.26 981.03L356.64 1003.11C356.64 1003.2 356.55 1003.2 356.55 1003.2 353.67 1002.91 351.27 1003.11 348.48 1003.11 314.79 1004.45 311.33 1026.53 295.01 1037.28 295.01 1037.28 294.92 1037.28 294.92 1037.19Z" fill="#231f20" opacity="1" stroke-width="4" stroke="none"></path><path d="M289.25 1040.26C285.6 1041.7 281.57 1042.56 276.39 1042.76 276.29 1042.76 276.29 1042.76 276.29 1042.66L271.78 906.72C271.78 906.62 271.78 906.62 271.87 906.62 278.11 906.24 284.64 905.95 290.6 905.86 290.69 905.86 290.69 905.86 290.69 905.95L294.92 1037.28V1037.38C293.28 1038.44 291.36 1039.4 289.25 1040.26Z" fill="#9a9a9a" opacity="1" stroke-width="4" stroke="none"></path><path d="M324 991.97L330.15 1005.41" stroke="#5a5a5a" stroke-width="4" stroke-linecap="round" stroke-linejoin="round" opacity="1" fill="none"></path><path d="M309.41 1001.67L318.44 1012.99" stroke="#5a5a5a" stroke-width="4" stroke-linecap="round" stroke-linejoin="round" opacity="1" fill="none"></path><path d="M294.15 979.11L319.4 973.06" stroke="#5a5a5a" stroke-width="4" stroke-linecap="round" stroke-linejoin="round" opacity="1" fill="none"></path><path d="M849.14 592.5C851.15 591.35 860.56 585.69 858.83 578.78 850.58 565.24 695.34 628.7 693.23 631.58H693.13C691.5 630.81 670.67 620.54 648.59 609.3 648.49 609.3 648.49 609.3 648.49 609.4L636.97 645.5 626.03 689.95C626.03 690.04 626.03 690.04 626.12 690.04 646.09 696.95 668.08 702.91 684.59 702.91 724.53 702.91 792.59 653.18 794.32 651.93 794.32 651.93 794.32 651.93 794.42 651.93 806.42 654.43 818.7 655.77 830.99 655.77 852.11 655.77 870.35 650.97 872.37 642.42 872.37 642.42 872.37 642.33 872.47 642.33 873.43 642.23 887.63 640.02 885.91 628.98 885.91 628.89 885.91 628.89 886 628.89 887.15 628.7 898.48 626.49 895.03 618.81 892.63 613.53 847.89 613.53 847.89 610.17 847.89 609.21 896.95 607.29 895.51 599.13 894.16 590.01 853.94 592.41 849.33 592.7 849.04 592.7 849.04 592.5 849.14 592.5Z" fill="#f49e73" opacity="1" stroke-width="4" stroke="none"></path><path d="M616.81 594.62C589.07 581.75 572.46 577.24 571.21 576.86 571.11 576.86 571.11 576.76 571.11 576.76L572.94 568.21C572.94 568.12 572.94 568.12 572.84 568.12L510.44 550.36C510.34 550.36 510.34 550.36 510.34 550.45L507.46 563.41C507.46 563.41 507.46 563.51 507.37 563.51 505.35 563.89 448.14 574.84 403.21 724.7 403.21 724.8 403.21 724.8 403.3 724.8L469.83 735.64 533.77 725.76H533.87L562.09 684.28 572.84 668.44C572.84 668.44 572.94 668.35 572.94 668.44 590.22 676.7 607.69 683.61 625.74 690.04 625.84 690.04 625.84 690.04 625.84 689.95L648.2 609.4C648.2 609.4 648.2 609.3 648.11 609.3 637.26 603.35 626.32 599.13 616.81 594.62Z" fill="#61ccff" opacity="1" stroke-width="4" stroke="none"></path><path d="M553.64 658.84L562.19 683.99C562.19 684.09 562.28 684.09 562.38 683.99L573.03 668.35C573.03 668.25 573.03 668.25 573.03 668.25L553.83 658.75C553.64 658.75 553.55 658.75 553.64 658.84Z" fill="#383939" opacity="0.2" stroke-width="4" stroke="none"></path><path d="M465.8 385.52C497.29 353.55 577.93 426.32 549.32 460.88 517.83 492.85 437.19 420.18 465.8 385.52Z" fill="#fe4f32" opacity="1" stroke-width="4" stroke="none"></path><path d="M639.95 466.64C632.56 458.29 617.2 464.63 616.14 465.11H616.04C607.21 453.59 590.22 442.45 566.31 446 534.63 450.8 526.86 480.56 520.14 506.49 520.14 506.58 520.04 506.58 519.95 506.58 517.45 504.37 473.1 466.84 431.05 502.36 409.54 520.5 414.73 560.92 422.41 573.5V573.59C401.29 589.91 410.02 637.05 436.81 639.93H436.9C437.57 638.78 448.62 618.52 456.1 608.25H456.2C480.3 619.67 509.1 610.55 518.7 603.45 552.39 578.39 554.31 546.71 556.23 530.29V530.2C551.43 524.44 537.03 505.24 550.47 492.66 565.45 478.64 581.48 506.58 582.25 507.93 582.25 507.93 582.25 508.02 582.35 507.93 583.79 507.73 610.67 503.61 626.51 494.49 644.75 483.92 644.56 471.83 639.95 466.64Z" fill="#fe4f32" opacity="1" stroke-width="4" stroke="none"></path><path d="M559.98 508.02L566.79 516.66" stroke="#171717" stroke-width="4" stroke-linecap="round" stroke-linejoin="round" opacity="1" fill="none"></path><path d="M574.95 559.57C568.04 555.06 563.43 550.55 563.43 550.55" stroke="#171717" stroke-width="4" stroke-linecap="round" stroke-linejoin="round" opacity="1" fill="none"></path><path d="M603.37 532.12C604.33 535 607.21 536.92 609.13 536.92" stroke="#171717" stroke-width="4" stroke-linecap="round" stroke-linejoin="round" opacity="1" fill="none"></path><path d="M611.05 510.9C614.8 511 614.8 516.57 611.05 516.66 607.31 516.57 607.31 511 611.05 510.9Z" fill="#17151c" opacity="1" stroke-width="4" stroke="none"></path><path d="M573.03 668.44L554.03 658.75" stroke="#141515" stroke-width="4" stroke-linecap="round" stroke-linejoin="round" opacity="1" fill="none"></path><path d="M520.04 506.49C526.76 512.25 531.85 517.33 531.85 517.33" stroke="#974639" stroke-width="4" stroke-linecap="round" stroke-linejoin="round" opacity="1" fill="none"></path><path d="M456.3 608.15C452.07 606.14 447.75 602.49 444.3 599.42" stroke="#974639" stroke-width="4" stroke-linecap="round" stroke-linejoin="round" opacity="1" fill="none"></path><path d="M554.89 449.08C545.19 453.01 538.86 460.12 533.67 468.56" stroke="#974639" stroke-width="4" stroke-linecap="round" stroke-linejoin="round" opacity="1" fill="none"></path><path d="M849.14 592.7L829.55 594.23" stroke="#914a27" stroke-width="4" stroke-linecap="round" stroke-linejoin="round" opacity="1" fill="none"></path><path d="M885.71 628.98C885.71 628.98 866.99 630.23 842.03 627.35" stroke="#914a27" stroke-width="4" stroke-linecap="round" stroke-linejoin="round" opacity="1" fill="none"></path><path d="M872.27 642.42L835.31 640.5" stroke="#914a27" stroke-width="4" stroke-linecap="round" stroke-linejoin="round" opacity="1" fill="none"></path><path d="M623.24 1008.1L648.01 959.62C648.68 953.95 650.32 946.56 652.81 938.4L654.92 925.92C654.92 925.82 654.92 925.82 654.83 925.82L561.42 924.38C561.42 924.38 561.32 924.38 561.32 924.48L556.71 938.4C554.79 948.58 552.97 959.14 551.72 970.08 551.72 970.08 551.72 970.08 551.72 970.18L554.41 975.75 623.05 1008.1C623.24 1008.19 623.24 1008.19 623.24 1008.1Z" fill="#f49e73" opacity="1" stroke-width="4" stroke="none"></path><path d="M591.76 833.47C591.85 833.47 591.85 833.57 591.85 833.57 585.03 847.1 579.27 859.97 574.28 873.5 567.18 892.61 561.71 913.06 556.81 938.3 556.81 938.4 556.81 938.4 556.91 938.4H652.81C652.81 938.4 652.91 938.4 652.91 938.3 723.28 752.83 702.06 741.21 533.96 725.76 533.67 725.76 406.66 724.7 403.4 724.7 403.4 724.7 403.3 724.7 403.3 724.8 402.92 726.04 397.45 744.96 394.57 767.04 390.63 798.33 398.98 848.73 455.24 850.94 523.11 853.44 587.63 834.62 591.76 833.47Z" fill="#ffc930" opacity="1" stroke-width="4" stroke="none"></path><path d="M591.95 833.37C585.23 846.81 579.37 859.68 574.47 873.02 574.47 873.12 574.57 873.21 574.67 873.12 597.42 849.12 624.2 834.62 626.51 822.24 626.51 822.14 626.41 822.14 626.41 822.14 609.61 828.19 592.91 833.09 591.95 833.37Z" fill="#080602" opacity="0.2" stroke-width="4" stroke="none"></path><path d="M422.98 842.21C431.91 847.49 441.22 850.37 455.34 850.85 492.87 852.29 529.35 847.2 555.18 842.11" stroke="#080602" stroke-width="4" stroke-linecap="round" stroke-linejoin="round" opacity="1" fill="none"></path><path d="M556.71 938.4H652.91" stroke="#080602" stroke-width="4" stroke-linecap="round" stroke-linejoin="round" opacity="1" fill="none"></path><path d="M679.89 1022.5C676.53 1022.88 617.2 1030.47 616.72 1030.47 616.14 1030.37 551.15 1022.79 548.75 1022.4L548.65 1022.31C548.94 1004.74 549.8 987.36 551.82 970.18 551.82 970.08 551.91 970.08 551.91 970.08 590.12 971.81 614.12 993.51 616.52 995.81 616.62 995.91 616.72 995.81 616.72 995.71L613.26 974.21C612.01 966.43 618.06 959.33 625.93 959.33L648.01 959.62C648.11 959.62 648.11 959.71 648.11 959.71 647.72 962.59 647.72 965.09 647.72 967.87 647.92 1001.47 670.09 1005.89 679.98 1022.4 680.08 1022.4 679.98 1022.5 679.89 1022.5Z" fill="#231f20" opacity="1" stroke-width="4" stroke="none"></path><path d="M682.86 1028.26C684.11 1031.91 684.88 1036.04 684.88 1041.12 684.88 1041.22 684.88 1041.22 684.78 1041.22H548.84C548.75 1041.22 548.75 1041.22 548.75 1041.12 548.55 1034.88 548.55 1028.45 548.65 1022.5 548.65 1022.4 548.65 1022.4 548.75 1022.4L679.98 1022.5C679.98 1022.5 680.08 1022.5 680.08 1022.59 681.04 1024.32 682.09 1026.15 682.86 1028.26Z" fill="#9a9a9a" opacity="1" stroke-width="4" stroke="none"></path><path d="M635.72 992.07L650.22 986.02" stroke="#5a5a5a" stroke-width="4" stroke-linecap="round" stroke-linejoin="round" opacity="1" fill="none"></path><path d="M645.04 1006.95L656.36 998.4" stroke="#5a5a5a" stroke-width="4" stroke-linecap="round" stroke-linejoin="round" opacity="1" fill="none"></path><path d="M621.9 1021.35L616.72 996" stroke="#5a5a5a" stroke-width="4" stroke-linecap="round" stroke-linejoin="round" opacity="1" fill="none"></path><path d="M403.49 724.7L533.96 725.76" stroke="#141515" stroke-width="4" stroke-linecap="round" stroke-linejoin="round" opacity="1" fill="none"></path><path d="M591.95 833.37L626.41 822.14" stroke="#080602" stroke-width="4" stroke-linecap="round" stroke-linejoin="round" opacity="1" fill="none"></path><path d="M397.16 751.2C431.72 753.5 486.63 771.45 511.4 848.25" stroke="#ffde7f" stroke-width="4" stroke-linecap="round" stroke-linejoin="round" opacity="1" fill="none"></path><path d="M477.32 728.83C461 770.78 428.07 794.2 395.91 801.02" stroke="#ffde7f" stroke-width="4" stroke-linecap="round" stroke-linejoin="round" opacity="1" fill="none"></path><path d="M566.03 730.27C538.09 767.61 541.45 794.97 568.23 799.29 600.2 804.48 635.72 765.98 652.33 745.05" stroke="#ffde7f" stroke-width="4" stroke-linecap="round" stroke-linejoin="round" opacity="1" fill="none"></path><path d="M582.35 857.85C613.36 880.22 614.41 917.86 614.41 917.86 614.41 917.86 630.64 843.93 685.26 834.24" stroke="#ffde7f" stroke-width="4" stroke-linecap="round" stroke-linejoin="round" opacity="1" fill="none"></path><path d="M468.01 921.22C475.59 918.34 483.08 917.28 489.8 917.86 519.95 920.45 540.49 973.25 512.94 1040.55" stroke="#ffde7f" stroke-width="4" stroke-linecap="round" stroke-linejoin="round" opacity="1" fill="none"></path><path d="M403.59 1015.01C415.01 971.04 432.1 945.12 450.63 931.1" stroke="#ffde7f" stroke-width="4" stroke-linecap="round" stroke-linejoin="round" opacity="1" fill="none"></path></g><g><path d="M1147.07 164.6H1264.24C1285.97 164.6 1303.55 182.18 1303.55 203.91V321.08C1303.55 352.27 1294.37 381.25 1278.73 405.59 1250.91 448.87 1198.36 477.55 1147.07 477.55 1109.02 477.55 1073.86 463.64 1046.52 440.65 1012.42 411.97 990.59 369.08 990.59 321.08 990.59 234.63 1060.62 164.6 1147.07 164.6Z" fill="#ffc930" opacity="1" stroke-width="4" stroke="none"></path><path d="M1236.13 198.6L1269.55 232.02" stroke="#c4c4c4" stroke-width="4" stroke-linecap="round" stroke-linejoin="round" opacity="1" fill="none"></path><path d="M1269.55 198.6L1236.13 232.02" stroke="#c4c4c4" stroke-width="4" stroke-linecap="round" stroke-linejoin="round" opacity="1" fill="none"></path></g><g><path d="M1089.53 299.85C1090.41 291.88 1091.28 279.24 1093.33 267.48 1093.33 267.48 1093.33 267.38 1093.42 267.38L1172.07 233.36H1172.16L1192.58 268.36 1207.84 347.48C1207.64 366.63 1207.35 381.51 1207.35 381.7 1207.26 382.09 1196.08 446.35 1158.46 442.36 1120.93 438.37 1131.24 387.83 1131.33 387.44V382.67 378.2L1131.43 362.45C1131.43 362.36 1131.33 362.36 1131.33 362.36 1129.68 363.13 1112.48 370.62 1096.24 359.34 1078.45 347.19 1087.88 315.21 1089.53 299.85Z" fill="#a66241" opacity="1" stroke-width="4" stroke="none"></path><path d="M1131.43 362.45L1131.33 378.01C1131.33 378.1 1131.43 378.1 1131.53 378.1 1133.28 375.97 1147.37 358.47 1154.67 349.82 1154.76 349.72 1154.67 349.62 1154.57 349.72 1142.9 357.11 1132.31 361.97 1131.43 362.45 1131.43 362.36 1131.43 362.36 1131.43 362.45Z" fill="#171717" opacity="0.2" stroke-width="4" stroke="none"></path><path d="M1102.56 242.3C1112.38 231.22 1136.1 219.85 1161.86 222.57 1186.74 225.19 1206.87 245.41 1207.74 280.31 1208.13 297.91 1208.03 325.42 1207.84 347.39 1207.84 347.48 1207.84 347.48 1207.74 347.48 1206.28 347.39 1190.05 345.64 1181.01 337.37V337.28C1182.56 335.82 1209.49 310.16 1189.47 294.12 1178.68 285.46 1157.48 306.36 1156.03 307.82 1156.03 307.82 1155.93 307.82 1155.83 307.82 1154.96 306.46 1145.14 290.42 1153.6 272.34 1153.6 272.24 1153.6 272.15 1153.5 272.24 1116.56 286.82 1094.4 268.45 1093.42 267.48V267.38C1095.17 256.3 1097.8 247.65 1102.56 242.3Z" fill="#17151c" opacity="1" stroke-width="4" stroke="none"></path><path d="M1178.68 313.65L1170.41 321.43" stroke="#171717" stroke-width="4" stroke-linecap="round" stroke-linejoin="round" opacity="1" fill="none"></path><path d="M1109.85 311.13C1108.78 312.88 1107.42 315.7 1107.81 317.35 1108.2 318.42 1108.98 319.39 1110.05 319.88" stroke="#171717" stroke-width="4" stroke-linecap="round" stroke-linejoin="round" opacity="1" fill="none"></path><path d="M1118.6 328.04C1118.41 331.25 1115.59 333.68 1112.38 333.49 1112.28 333.49 1112.09 333.49 1111.99 333.49" stroke="#171717" stroke-width="4" stroke-linecap="round" stroke-linejoin="round" opacity="1" fill="none"></path><path d="M1131.43 362.36C1131.43 362.36 1150.68 352.93 1155.05 349.23" stroke="#171717" stroke-width="4" stroke-linecap="round" stroke-linejoin="round" opacity="1" fill="none"></path><path d="M1125.99 306.27C1127.65 306.27 1129 304.92 1129 303.25 1129 301.59 1127.65 300.24 1125.99 300.24 1124.33 300.24 1122.97 301.59 1122.97 303.25 1122.97 304.92 1124.33 306.27 1125.99 306.27Z" fill="#17151c" opacity="1" stroke-width="4" stroke="none"></path><path d="M1100.33 303.55C1101.99 303.55 1103.34 302.19 1103.34 300.53 1103.34 298.87 1101.99 297.52 1100.33 297.52 1098.66 297.52 1097.31 298.87 1097.31 300.53 1097.31 302.19 1098.66 303.55 1100.33 303.55Z" fill="#17151c" opacity="1" stroke-width="4" stroke="none"></path><path d="M1279.39 404.55V404.45C1273.55 399.49 1267.14 395.12 1260.43 391.52 1243.81 383.35 1226.11 378.4 1207.64 376.84 1207.55 376.84 1207.45 376.84 1207.45 376.94 1206.09 379.17 1185.97 412.71 1157.1 409.6 1132.31 406.98 1131.43 384.33 1131.43 382.77 1131.43 382.67 1131.43 382.67 1131.33 382.67 1129.39 382.87 1097.31 386.85 1076.99 404.06 1076.99 404.06 1061.73 415.04 1045.89 439.74V439.83C1075.34 464.91 1110.14 476.97 1146.99 476.87 1200.55 476.87 1250.32 449.65 1279.39 404.55Z" fill="#61ccff" opacity="1" stroke-width="4" stroke="none"></path></g></svg>